<?xml version="1.0" standalone="no"?>
<!DOCTYPE svg PUBLIC "-//W3C//DTD SVG 1.1//EN" "http://www.w3.org/Graphics/SVG/1.1/DTD/svg11.dtd" >
<svg xmlns="http://www.w3.org/2000/svg">
<metadata>Generated by IcoMoon</metadata>
<defs>
<font id="icomoonV1" horiz-adv-x="1024">
<font-face units-per-em="1024" ascent="960" descent="-64" />
<missing-glyph horiz-adv-x="1024" />
<glyph unicode="&#x20;" horiz-adv-x="512" d="" />
<glyph unicode="&#xe900;" glyph-name="waitTask" d="M512 960c282.713 0 512-229.287 512-512s-229.287-512-512-512-512 229.287-512 512 229.287 512 512 512zM523.13 692.87c-129.113 0-233.739-104.626-233.739-233.739s104.626-233.739 233.739-233.739 233.739 104.626 233.739 233.739-104.626 233.739-233.739 233.739zM641.113 410.157c0-4.452-4.452-8.904-8.904-8.904h-160.278c-4.452 2.226-6.678 4.452-6.678 8.904v158.052c0 4.452 4.452 8.904 8.904 8.904h40.070c4.452 0 8.904-4.452 8.904-8.904v-106.852h106.852c4.452 0 8.904-4.452 8.904-8.904v-42.296h2.226z" />
<glyph unicode="&#xe901;" glyph-name="businessWaring" d="M512-64c-282.778 0-512 229.222-512 512s229.222 512 512 512 512-229.222 512-512-229.222-512-512-512zM750.848 475.443h-83.789c-9.472 0-17.203-9.856-17.203-21.939v-6.81c0-12.109 7.68-21.939 17.203-21.939h83.712c9.549 0 17.229 9.83 17.229 21.939v6.81c0 12.083-7.629 21.939-17.152 21.939zM728.73 652.57l-68.608-48.051c-7.782-5.427-8.474-17.92-1.536-27.853l3.891-5.581c6.938-9.907 18.893-13.568 26.701-8.090l68.557 48.026c7.834 5.453 8.474 17.92 1.536 27.827l-3.917 5.606c-6.912 9.882-18.816 13.568-26.624 8.115zM757.76 289.28l-68.608 48.051c-7.757 5.427-19.763 1.792-26.701-8.090l-3.891-5.606c-6.938-9.907-6.298-22.374 1.536-27.827l68.557-48.026c7.808-5.453 19.738-1.792 26.675 8.090l3.917 5.581c6.938 9.907 6.323 22.349-1.485 27.827zM538.88 663.706c-33.050-26.291-102.323-63.232-152.115-98.714h-0.077c-0.563-0.358-1.126-2.304-1.715-2.662-5.888-3.328-8.55-12.442-40.525-12.442h-62.413c-16.026 0-26.010-7.526-26.010-24.474v-150.426c0-16.947 9.114-25.344 26.010-25.344h62.618c31.846 0 34.406-9.114 40.269-12.416 0.563-0.282 1.126-2.304 1.69-2.611l0.077-0.051c48.23-35.43 117.914-75.238 152.115-100.531 10.24-7.603 44.544-20.966 44.544 26.061v379.648c0.051 47.002-34.483 31.974-44.467 23.962z" />
<glyph unicode="&#xe902;" glyph-name="modifier" d="M695.936 307.2l42.88 42.88c-41.44 42.584-94.237 73.915-153.502 89.106l-2.274 0.494c67.906 33.506 114.808 100.379 119.397 178.623l0.027 0.577c0.486 2.598 0.763 5.586 0.763 8.64s-0.278 6.042-0.809 8.942l0.046-0.302c-8.704 107.52-88.064 195.84-194.944 195.84s-194.56-91.776-195.712-203.904c0-0.103 0-0.226 0-0.349 0-82.9 48.768-154.41 119.181-187.406l1.268-0.534c-149.504-35.712-257.92-177.408-262.016-342.144-1.024-40.448 59.136-40.448 60.288 0 3.968 158.336 122.752 288 276.992 288.768 0.092 0 0.2 0 0.308 0 73.702 0 140.321-30.327 188.058-79.182l0.049-0.050zM371.968 627.2c0 182.272 262.912 180.864 271.104 0-8.32-179.2-270.336-181.76-271.104 0.896zM723.2 57.6h-89.6c-14.138 0-25.6 11.462-25.6 25.6v0 89.6c0.031 7.057 2.912 13.435 7.551 18.047l166.401 166.401c4.634 4.639 11.038 7.508 18.112 7.508s13.478-2.869 18.112-7.508v0l89.6-89.6c4.639-4.634 7.508-11.038 7.508-18.112s-2.869-13.478-7.508-18.112v0l-166.4-166.4c-4.625-4.589-10.995-7.424-18.028-7.424-0.052 0-0.104 0-0.156 0h0.008zM659.2 108.8h53.376l140.8 140.8-53.376 53.376-140.8-140.8z" />
<glyph unicode="&#xe903;" glyph-name="notification" d="M512 960c282.77 0 512-229.23 512-512s-229.23-512-512-512v0c-282.77 0-512 229.23-512 512s229.23 512 512 512v0zM832 265.152c-12.8 9.984-24.512 20.48-35.008 31.36-11.771 12.69-22.533 26.667-31.949 41.579l-0.691 1.173c-10.601 16.224-20.238 34.858-27.941 54.464l-0.731 2.112c-8.010 20.969-14.689 45.731-18.892 71.327l-0.308 2.273c-4.809 27.151-7.558 58.41-7.558 90.311 0 0.875 0.002 1.75 0.006 2.624l-0.001-0.135c0 36.224-14.976 69.888-44.992 100.928-30.016 31.104-69.376 49.92-118.080 56.64 1.925 4.073 3.055 8.847 3.072 13.882v0.006c0.002 0.125 0.003 0.272 0.003 0.419 0 9.495-4.144 18.023-10.722 23.873l-0.032 0.028c-6.606 6.191-15.516 9.994-25.314 9.994-0.303 0-0.605-0.004-0.907-0.011l0.045 0.001c-0.257 0.006-0.559 0.010-0.862 0.010-9.798 0-18.708-3.803-25.334-10.013l0.020 0.019c-6.611-5.878-10.755-14.406-10.755-23.901 0-0.147 0.001-0.294 0.003-0.441v0.022c0-4.736 1.024-9.408 3.072-13.888-48.704-6.72-88.064-25.6-118.080-56.64s-44.992-64.64-44.992-100.864c0-33.088-2.496-64.064-7.488-92.864s-11.392-53.376-19.2-73.6c-8.434-21.718-18.071-40.352-29.406-57.78l0.734 1.204c-10.127-16.057-20.909-30.013-32.864-42.862l0.16 0.174c-10.75-11.13-22.176-21.42-34.283-30.878l-0.725-0.546c0-12.416 4.864-23.104 14.592-32.128 8.803-8.402 20.754-13.573 33.913-13.573 0.25 0 0.5 0.002 0.749 0.006h172.314c0-25.28 9.6-46.784 28.8-64.64 19.2-17.92 42.432-26.816 69.632-26.816s50.368 8.96 69.632 26.816c19.2 17.856 28.8 39.36 28.8 64.64h172.352c13.312 0 24.832 4.48 34.56 13.568 8.999 7.823 14.656 19.29 14.656 32.078 0 0.018 0 0.035 0 0.053v-0.003zM448 224h128c-3.456-42.688-25.088-64-64.832-64-39.808 0-60.8 21.312-63.168 64z" />
<glyph unicode="&#xe904;" glyph-name="serverManage" d="M72.279 625.213c0 46.587 26.685 90.957 66.714 113.142l306.893 177.475c42.25 24.402 91.177 24.402 133.427 0l306.893-175.258c40.156-23.412 66.714-66.277 66.714-115.344 0-0.005 0-0.010 0-0.015v0.001-352.737c0-0.006 0-0.013 0-0.020 0-49.067-26.557-91.932-66.082-115.004l-0.631-0.34-306.893-177.475c-42.25-24.407-91.177-24.407-133.427 0l-306.893 177.475c-40.156 23.412-66.714 66.277-66.714 115.344 0 0.007 0 0.014 0 0.021v-0.001 352.737zM277.079 683.254v-471.040h471.040v471.040h-471.040zM277.079 555.254h471.040v-40.96h-471.040v40.96zM748.119 555.254v0zM277.079 514.294v0zM277.079 381.174h471.040v-40.96h-471.040v40.96zM748.119 381.174v0zM277.079 340.214v0zM318.039 642.294h40.96v-40.96h-40.96v40.96zM318.039 468.214h40.96v-40.96h-40.96v40.96zM318.039 299.254h40.96v-40.96h-40.96v40.96zM538.199 642.294h168.96v-40.96h-168.96v40.96zM538.199 468.214h168.96v-40.96h-168.96v40.96zM538.199 299.254h168.96v-40.96h-168.96v40.96z" />
<glyph unicode="&#xe905;" glyph-name="workGroup" horiz-adv-x="1063" d="M78.769 684.308h905.846v157.538c0 21.752-17.633 39.385-39.385 39.385h-827.077c-21.752 0-39.385-17.633-39.385-39.385v0-157.538zM78.769 605.538v-551.385c0-21.752 17.633-39.385 39.385-39.385v0h827.077c21.752 0 39.385 17.633 39.385 39.385v0 551.385h-905.846zM118.154 960h827.077c65.255 0 118.154-52.899 118.154-118.154v0-787.692c0-65.255-52.899-118.154-118.154-118.154v0h-827.077c-65.255 0-118.154 52.899-118.154 118.154v0 787.692c0 65.255 52.899 118.154 118.154 118.154v0zM236.308 487.385h118.154v-118.154h-118.154v118.154zM236.308 251.077h118.154v-118.154h-118.154v118.154zM472.615 487.385h118.154v-118.154h-118.154v118.154zM472.615 251.077h118.154v-118.154h-118.154v118.154zM708.923 487.385h118.154v-118.154h-118.154v118.154zM708.923 251.077h118.154v-118.154h-118.154v118.154z" />
<glyph unicode="&#xe906;" glyph-name="workManage" d="M928.1 799.1h-228.6c-49.1 0-97-14.1-138.3-40.7l-48.8-31.3-48.8 31.3c-41.2 26.6-89.2 40.7-138.3 40.7h-228.4c-17.7 0-32-14.3-32-32v-567.4c0-17.7 14.3-32 32-32h228.6c49.1 0 97-14.1 138.3-40.7l44.4-28.6c1.3-0.8 2.8-1.3 4.3-1.3s3 0.4 4.3 1.3l44.4 28.6c41.4 26.6 89.4 40.7 138.5 40.7h228.6c17.7 0 32 14.3 32 32v567.4c-0.2 17.7-14.5 32-32.2 32zM325.5 239.6h-188.6v487.5h188.6c35.4 0 69.7-10.1 99.4-29.2l48.8-31.3 6.9-4.5v-461.5c-47.6 25.6-100.8 39-155.1 39zM888.1 239.6h-188.6c-54.3 0-107.5-13.4-155-39v461.6l6.9 4.5 48.8 31.3c29.7 19.1 64 29.2 99.4 29.2h188.6v-487.6zM397.5 599.3h-185.6c-3.9 0-7.1-3.4-7.1-7.5v-45c0-4.1 3.2-7.5 7.1-7.5h185.5c3.9 0 7.1 3.4 7.1 7.5v45c0.1 4.1-3.1 7.5-7 7.5zM620.4 591.8v-45c0-4.1 3.2-7.5 7.1-7.5h185.5c3.9 0 7.1 3.4 7.1 7.5v45c0 4.1-3.2 7.5-7.1 7.5h-185.5c-3.9 0-7.1-3.4-7.1-7.5zM397.5 459.4h-185.6c-3.9 0-7.1-3.4-7.1-7.5v-45c0-4.1 3.2-7.5 7.1-7.5h185.5c3.9 0 7.1 3.4 7.1 7.5v45c0.1 4.1-3.1 7.5-7 7.5zM813.1 459.4h-185.6c-3.9 0-7.1-3.4-7.1-7.5v-45c0-4.1 3.2-7.5 7.1-7.5h185.5c3.9 0 7.1 3.4 7.1 7.5v45c0.1 4.1-3.1 7.5-7 7.5z" />
<glyph unicode="&#xe907;" glyph-name="workMapping" d="M551.822 388.267c-2.844 2.844-8.533 2.844-11.378 2.844h-341.333c-17.067 0-28.444-11.378-28.444-28.444s11.378-28.444 28.444-28.444h275.911l-96.711-96.711c-11.378-11.378-11.378-28.444 0-39.822s28.444-11.378 39.822 0l142.222 142.222c2.844 2.844 8.533 5.689 8.533 11.378 5.689 11.378 2.844 22.756-5.689 31.289-5.689 2.844-8.533 5.689-11.378 5.689zM398.222 704h-227.556v-227.556h227.556v227.556zM341.333 533.333h-113.778v113.778h113.778v-113.778zM938.667 960h-853.333c-48.356 0-85.333-36.978-85.333-85.333v-853.333c0-48.356 36.978-85.333 85.333-85.333h853.333c48.356 0 85.333 36.978 85.333 85.333v853.333c0 48.356-36.978 85.333-85.333 85.333zM967.111 69.689c0-42.667-34.133-76.8-76.8-76.8h-756.622c-42.667 0-76.8 34.133-76.8 76.8v756.622c0 42.667 34.133 76.8 76.8 76.8h759.467c39.822 0 73.956-34.133 73.956-76.8v-756.622zM824.889 590.222h-275.911l96.711 96.711c11.378 11.378 11.378 28.444 0 39.822s-28.444 11.378-39.822 0l-142.222-142.222c-2.844-2.844-8.533-5.689-8.533-11.378-5.689-11.378-2.844-22.756 5.689-31.289 2.844-2.844 5.689-5.689 8.533-5.689 5.689-2.844 11.378-2.844 14.222-2.844h341.333c17.067 0 28.444 11.378 28.444 28.444s-11.378 28.444-28.444 28.444zM739.556 448c-62.578 0-113.778-51.2-113.778-113.778s51.2-113.778 113.778-113.778 113.778 51.2 113.778 113.778-51.2 113.778-113.778 113.778zM739.556 277.333c-31.289 0-56.889 25.6-56.889 56.889s25.6 56.889 56.889 56.889 56.889-25.6 56.889-56.889-25.6-56.889-56.889-56.889z" />
<glyph unicode="&#xe908;" glyph-name="scopeManage" d="M576 896v-384h384v384h-384zM896 576h-256v256h256v-256zM64 0h384v384h-384v-384zM128 320h256v-256h-256v256zM576 0h384v384h-384v-384zM640 320h256v-256h-256v256z" />
<glyph unicode="&#xe909;" glyph-name="planChange" d="M945.6 532.8v313.6c0 19.2-16 33.6-33.6 33.6h-352c-19.2 0-33.6-16-33.6-33.6v-312c0-19.2 16-33.6 33.6-33.6h350.4c19.2-1.6 35.2 12.8 35.2 32zM876.8 771.2v-163.2c0-22.4-17.6-41.6-41.6-41.6h-200c-22.4 0-41.6 17.6-41.6 41.6v163.2c0 22.4 17.6 41.6 41.6 41.6h200c24-1.6 41.6-19.2 41.6-41.6zM489.6 416h-350.4c-19.2 0-33.6-16-33.6-33.6v-312c0-19.2 16-33.6 33.6-33.6h350.4c19.2 0 33.6 16 33.6 33.6v310.4c0 19.2-14.4 35.2-33.6 35.2zM454.4 305.6v-161.6c0-22.4-17.6-41.6-41.6-41.6h-198.4c-22.4 0-41.6 17.6-41.6 41.6v161.6c0 22.4 17.6 41.6 41.6 41.6h200c22.4 0 40-17.6 40-41.6zM300.8 606.4h-62.4v16c0 99.2 78.4 179.2 172.8 179.2h20.8v78.4h-20.8c-134.4 0-244.8-115.2-244.8-256v-16l-16-1.6h-54.4l102.4-120 102.4 120zM876.8 427.2l-102.4-120h62.4v-16c-1.6-99.2-80-179.2-174.4-179.2h-20.8v-78.4h20.8c134.4 0 244.8 115.2 244.8 256v16l16 1.6h56l-102.4 120z" />
<glyph unicode="&#xe90a;" glyph-name="planApproval" d="M827.093 64h-630.187c-14.421 0-26.24 12.373-26.24 27.435s11.819 27.435 26.24 27.435h630.187c14.421 0 26.24-12.373 26.24-27.435 0-15.104-11.819-27.435-26.24-27.435zM827.093 173.696h-630.187c-14.421 0-26.24 12.373-26.24 27.435v137.131c0 45.227 35.413 82.261 78.763 82.261h168.064c-5.248 32.939-21.035 64.427-43.349 91.904-28.585 33.922-45.955 78.112-45.955 126.358 0 0.412 0.001 0.824 0.004 1.236v-0.063c0 52.096 19.712 101.461 56.448 138.496 36.779 37.035 84.053 54.827 135.253 53.461 94.507-4.096 174.592-89.131 175.915-187.861 1.28-49.365-17.067-97.365-48.597-134.4-22.315-24.661-35.413-54.827-40.704-89.131h168.064c43.307 0 78.763-36.992 78.763-82.261v-137.131c0-15.104-11.819-27.435-26.24-27.435zM223.147 228.565h577.621v109.696c0 15.061-11.819 27.435-26.24 27.435h-196.949c-14.421 0-26.24 12.331-26.24 27.435 0 57.6 19.712 112.427 56.448 153.6 23.637 26.027 35.413 60.288 35.413 95.957-1.28 71.296-57.728 131.627-125.995 134.4-1.713 0.084-3.72 0.132-5.738 0.132-35.407 0-67.365-14.77-90.047-38.486l-0.044-0.046c-25.149-25.142-40.705-59.878-40.705-98.248 0-0.17 0-0.339 0.001-0.508v0.026c0-32.939 11.819-65.835 32.853-90.539 38.059-45.227 59.051-100.096 59.051-156.288 0-15.104-11.819-27.435-26.24-27.435h-196.907c-14.421 0-26.24-12.373-26.24-27.435v-109.696z" />
<glyph unicode="&#xe90b;" glyph-name="rentPlan" d="M512 949.76c-276.48 0-501.76-225.28-501.76-501.76s225.28-501.76 501.76-501.76 501.76 225.28 501.76 501.76-225.28 501.76-501.76 501.76zM781.824 96.256c-77.824-59.904-171.52-91.648-269.824-91.648h-0.512c-95.232 0-189.44 31.232-265.216 88.576l-7.168 5.632 224.256 388.608 8.192-2.56c27.648-9.216 58.368-8.704 86.016 1.536l8.192 3.072 143.36-248.832-6.144-5.632c-52.224-47.104-120.32-72.704-190.464-72.704-7.68 0-15.36-3.072-20.48-8.704-5.632-5.632-8.704-12.8-8.704-20.48 0-15.872 13.312-29.184 29.184-29.184h0.512c78.848 0 155.648 27.648 216.576 77.312l9.216 7.68 50.176-87.040-7.168-5.632zM442.88 605.696c0 18.432 7.168 35.84 20.48 49.152s30.72 20.48 49.152 20.48c18.432 0 35.84-7.168 49.152-20.48s20.48-30.72 20.48-49.152-7.168-35.84-20.48-49.152c-13.312-13.312-30.72-20.48-49.152-20.48-38.912 0-69.632 31.232-69.632 69.632zM842.24 152.064l-9.216-10.752-52.224 90.624 4.096 5.632c46.592 60.416 71.168 133.12 71.168 209.92 0 7.68-3.072 15.36-8.704 20.48-5.632 5.632-12.8 8.704-20.48 8.704s-15.36-3.072-20.48-8.704c-5.632-5.632-8.704-12.8-8.704-20.48 0-51.2-13.824-101.888-39.936-145.92l-8.704-14.848-137.728 238.080 4.096 5.12c8.192 11.776 14.848 24.576 18.944 38.4 19.968 67.584-18.432 138.752-86.016 158.72l-7.168 2.048v73.216c0 15.872-13.312 29.184-29.184 29.184s-29.184-13.312-29.184-29.184v-72.192l-7.168-2.048c-15.36-4.608-29.696-11.776-41.984-22.016-55.296-43.52-65.024-123.904-22.016-179.2l4.096-5.632-221.184-382.976-9.216 10.24c-75.264 81.92-116.736 188.416-116.736 299.52 0 244.736 199.168 443.392 443.392 443.392s443.392-199.168 443.392-443.392c0-109.056-39.936-214.528-113.152-295.936z" />
<glyph unicode="&#xe90c;" glyph-name="rentContract" d="M768.171 755.413l0.384 2.603c-3.627 59.392-49.237 103.339-108.971 103.339h-457.301c-0.349 0.004-0.761 0.006-1.174 0.006-30.503 0-58.132-12.307-78.193-32.226l0.006 0.006c-19.979-19.822-32.347-47.291-32.347-77.648 0-0.407 0.002-0.814 0.007-1.22l-0.001 0.062v-536.747c0-61.824 48.043-108.587 111.701-108.587h137.856c17.536 0 28.459 10.112 28.459 25.984 0 16-10.923 25.941-28.459 25.941h-137.856c-29.483 0-59.477 28.587-59.477 56.704v536.704c0 28.715 30.592 59.179 59.477 59.179h457.301c26.453 0 53.376-26.155 56.704-53.547v-89.813c0-6.869 2.731-13.44 7.595-18.261 4.691-4.667 11.159-7.552 18.301-7.552 0.031 0 0.062 0 0.093 0h-0.005c6.869 0 13.44 2.731 18.304 7.552 4.69 4.666 7.592 11.125 7.595 18.261v0 89.259zM768.768 762.453c0-1.536-0.085-3.029-0.213-4.437 0.128-2.517 0.213-5.035 0.213-7.552v11.989zM338.816 424.405c0 5.973-2.389 11.691-6.613 15.915-4.267 4.267-10.027 6.613-16.043 6.613h-46.123c-12.16-0.469-21.803-10.411-21.803-22.528s9.643-22.059 21.803-22.528h46.123c5.973 0 11.776 2.347 16 6.571 4.267 4.224 6.656 9.984 6.656 15.957zM460.715 567.595c0 12.459-10.112 22.571-22.699 22.571h-169.6c-12.16-0.469-21.803-10.411-21.803-22.528s9.643-22.059 21.803-22.528h169.6c6.016 0 11.776 2.347 16.043 6.571s6.656 9.941 6.656 15.915zM584.363 700.757c0 12.416-10.112 22.485-22.699 22.485h-293.12c-12.544 0-22.656-10.112-22.656-22.528s10.112-22.485 22.656-22.485h293.12c6.016 0 11.819 2.347 16.085 6.571s6.656 9.984 6.613 15.957zM648.32 242.731c-2.859 0-5.675-0.683-8.32-2.261l-61.867-32.128 11.819 67.925c0.896 5.717-0.896 11.477-5.12 15.488l-50.048 48.128 69.291 9.899c5.632 0.853 10.539 4.352 13.184 9.557l31.061 61.867 31.019-61.525c2.432-5.205 7.381-8.704 13.184-9.557l69.291-9.899-50.048-48.128c-4.224-4.011-6.187-9.899-5.12-15.488l11.819-67.925-61.867 32.128c-2.645 1.237-5.461 1.92-8.277 1.92zM741.717 159.488c3.909 0.022 7.557 1.114 10.675 2.997l-0.094-0.053c5.461 4.011 8.107 10.453 7.040 17.024l-16.213 93.696 68.949 66.389c4.736 4.693 6.485 11.605 4.395 17.877-2.133 6.272-7.595 10.965-14.293 11.819l-95.36 13.739-42.667 85.163c-3.017 5.796-8.964 9.693-15.825 9.728h-0.005c-6.741 0-12.885-3.84-15.872-9.728l-42.667-85.163-95.189-13.227c-6.741-0.856-12.211-5.498-14.258-11.697l-0.035-0.122c-2.091-6.4-0.341-13.184 4.437-17.877l68.907-66.389-16.213-93.653c-1.067-6.613 1.579-13.227 7.040-17.024 5.291-4.011 12.501-4.523 18.517-1.408l85.333 44.117 85.12-44.288c2.645-1.237 5.461-1.92 8.277-1.92zM651.904 542.123c126.165-0.128 228.395-101.675 228.523-226.987-0.128-125.269-102.357-226.816-228.523-226.944-125.952 0-228.437 101.845-228.437 226.944 0.128 125.269 102.315 226.816 228.437 226.987zM651.904 33.621c156.331 0 283.477 126.336 283.477 281.515 0 155.221-127.147 281.557-283.477 281.557-156.245 0-283.349-126.336-283.349-281.557 0-155.179 127.104-281.515 283.349-281.515z" />
<glyph unicode="&#xe90d;" glyph-name="rentLCGH" horiz-adv-x="1152" d="M588.8 903.475c3.379-3.891 2.483-0.794 0 0v0zM81.946 392.371l456.166-203.11c40.32-18.842 57.702-18.842 101.376 0l456.166 203.11c22.502 10.394 30.746 59.264 30.746 85.606-29.338-14.541-70.861-35.277-71.68-35.456l-465.92-212.762-465.92 212.762c1.587-0.973-41.216 18.227-71.68 35.456 0-25.754 6.528-72.883 30.746-85.606zM588.8 16.998l-465.92 212.762c1.587-0.973-41.216 18.202-71.68 35.456 0-25.728 6.528-72.883 30.746-85.606l456.166-203.11c40.32-18.842 57.702-18.842 101.376 0l456.166 203.11c22.502 10.394 30.746 59.264 30.746 85.606-29.338-14.541-70.861-35.277-71.68-35.456l-465.92-212.762zM81.946 605.107l456.166-203.11c40.32-18.816 57.702-18.816 101.376 0l456.166 203.11c33.587 15.514 34.714 81.459 0 100.301l-456.166 238.566c-35.84 21.043-61.056 19.942-101.376 0l-456.166-238.566c-34.714-22.144-35.84-81.459 0-100.301zM588.8 903.475l465.92-248.218-465.92-194.458-465.92 194.458 465.92 248.218z" />
<glyph unicode="&#xe90e;" glyph-name="placeManage" horiz-adv-x="1210" d="M489.472-64h-451.072c-10.752 0-20.992 5.12-28.16 13.312-8.704 10.752-12.288 26.624-8.704 43.008l187.392 935.936c3.584 18.432 19.968 31.744 38.4 31.744h301.056c19.968 0 36.352-16.384 36.352-36.352v-1.536l-31.744-935.424c-1.024-28.16-19.968-50.688-43.52-50.688zM49.664-15.36h434.176c0.512 1.024 0.512 2.56 0.512 3.584l30.72 922.624h-280.064l-185.344-926.208zM1044.48 596.48h-349.696c-20.992 0-38.4 17.92-38.912 39.936l-9.728 286.208c-0.512 19.968 14.848 36.864 34.816 37.376h302.592c18.944-0.512 34.816-13.312 38.4-31.744l57.344-286.208c2.56-11.264-0.512-23.552-7.68-32.768-6.656-8.192-16.384-12.8-27.136-12.8zM704.512 645.12h324.608l-53.248 266.24h-280.064l8.704-266.24zM1209.344-7.68l-88.064 440.832c-4.608 22.016-23.040 38.912-43.008 38.912h-376.32c-10.24 0-19.968-4.096-26.624-11.776-8.192-8.704-12.8-20.48-12.288-32.768l14.848-440.832c1.024-28.672 19.968-50.688 43.52-50.688h451.072c10.752 0 20.992 5.12 28.16 13.312 8.704 10.752 11.776 26.624 8.704 43.008z" />
<glyph unicode="&#xe90f;" glyph-name="ApartmentItems" d="M99.698 195.292v506.759l413.439 190.24 410.893-190.222v-506.786l-411.38-190.228-412.952 190.238zM533.946 520.746v-457.029l345.923 155.064v440.333l-345.923-138.367zM143.86 221.92l345.921-156.057 0.001 454.883-345.923 138.367v-437.193zM174.87 692.867l338.871-133.715 331.206 133.401-331.749 150.451-338.329-150.136z" />
<glyph unicode="&#xe910;" glyph-name="advertisingManage" d="M411.523 34.042c-15.076 0-27.342 12.265-27.342 27.341s12.265 27.342 27.342 27.342h65.528c4.193 0 7.605 3.411 7.605 7.604v186.353c0 4.193-3.412 7.604-7.605 7.604h-449.71c-15.076 0-27.341 12.266-27.341 27.342 0 15.079 12.265 27.347 27.341 27.347h24.343c4.193 0 7.604 3.411 7.604 7.604v482.038c0 15.076 12.265 27.341 27.341 27.341h850.743c15.076 0 27.341-12.265 27.341-27.341v-482.038c0-4.193 3.412-7.604 7.604-7.604h24.343c15.075 0 27.34-12.268 27.34-27.347 0-15.076-12.265-27.342-27.34-27.342h-449.712c-4.194 0-7.605-3.412-7.605-7.604v-186.352c0-4.193 3.412-7.604 7.605-7.604h65.528c15.077 0 27.343-12.266 27.343-27.342s-12.266-27.341-27.343-27.341h-200.953zM121.581 709.167c-4.193 0-7.605-3.412-7.605-7.605v-348.862c0-4.193 3.412-7.604 7.605-7.604h780.844c4.193 0 7.604 3.411 7.604 7.604v348.863c0 4.193-3.411 7.605-7.604 7.605h-78.759c-8.677 0-15.737 7.060-15.737 15.738 0 8.674 7.060 15.731 15.737 15.731h78.759c4.193 0 7.604 3.412 7.604 7.605v51.553c0 4.193-3.411 7.604-7.604 7.604h-780.844c-4.193 0-7.605-3.411-7.605-7.604v-51.553c0-4.193 3.412-7.605 7.605-7.605h574.022c8.678 0 15.738-7.057 15.738-15.731 0-8.678-7.060-15.738-15.738-15.738h-574.022z" />
<glyph unicode="&#xe911;" glyph-name="custManage" d="M937.296 195.986l-292.215 146.030 90.955 132.328c3.1 4.464 4.952 9.997 4.953 15.963v0 199.459c0 125.691-100.808 224.147-229.5 224.147-128.705 0-229.514-98.456-229.514-224.147v-199.457c0-0.001 0-0.003 0-0.005 0-6.124 1.954-11.792 5.273-16.415l-0.058 0.084 93.694-131.734-304.933-146.048c-9.783-4.679-16.005-14.574-16.005-25.419v-126.585c0-15.565 12.621-28.186 28.185-28.186h836.558c15.566 0 28.186 12.62 28.186 28.186v126.585c0 0.002 0 0.005 0 0.007 0 10.97-6.268 20.476-15.419 25.132l-0.16 0.074zM453.302 238.346l-70.987-30.042-16.79 64.075 20.011 9.587 67.766-43.62zM513.889 202.788l62.25-26.356-36.104-104.059h-61.346l-34.946 100.719 70.146 29.696zM574.479 238.346l66.408 42.745 20.909-10.451-16.346-62.336-70.971 30.042zM338.345 499.308v190.458c0 94.080 76.050 167.777 173.144 167.777 97.081 0 173.13-73.697 173.13-167.777v-190.705l-104.347-151.813c-3.099-4.467-4.95-10.003-4.95-15.972 0-2.501 0.325-4.927 0.936-7.236l-0.044 0.197c1.343-5.104 3.934-9.487 7.432-12.957l0.002-0.002-69.757-44.894-70.386 45.298c3.296 3.393 5.746 7.626 6.999 12.346l0.044 0.196c0.569 2.117 0.896 4.547 0.896 7.053 0 6.129-1.955 11.801-5.275 16.427l0.058-0.085-107.881 151.688zM116.316 153.020l197.436 94.563 22.295-85.080c2.157-8.027 7.55-14.509 14.659-18.077l0.163-0.074c3.628-1.824 7.907-2.891 12.435-2.891 3.969 0 7.746 0.82 11.172 2.301l-0.183-0.070 17.425 7.376 27.304-78.693h-302.706v80.646zM896.504 72.373h-296.8l28.462 82.031 25.311-10.714c3.243-1.41 7.021-2.231 10.99-2.231 4.527 0 8.804 1.067 12.595 2.964l-0.163-0.074c7.274 3.64 12.669 10.124 14.777 17.956l0.045 0.197 21.601 82.39 183.183-91.543v-80.976z" />
<glyph unicode="&#xe912;" glyph-name="materialPro" d="M853.779 124.769h-693.776c-15.933 0-28.948 13.014-28.948 28.948s13.014 28.948 28.948 28.948h28.948v635.88c0 31.745 26.029 57.774 57.774 57.774h317.94c31.745 0 57.774-25.907 57.774-57.774v-144.618h144.739c31.745 0 57.774-25.907 57.774-57.774v-433.61h28.948c15.933 0 28.826-13.014 28.826-28.948 0-15.812-13.014-28.826-28.948-28.826zM564.787 616.153v206.527h-318.062v-640.015h317.94v433.488zM767.179 616.153h-144.618v-433.61h144.618v433.61zM680.457 500.605h28.948c15.933 0 28.948-13.014 28.948-28.948s-13.014-28.948-28.948-28.948h-28.948c-15.933 0-28.948 13.014-28.948 28.948s13.014 28.948 28.948 28.948zM680.457 356.109h28.948c15.933 0 28.948-13.014 28.948-28.948s-13.014-28.948-28.948-28.948h-28.948c-15.933 0-28.948 13.014-28.948 28.948s13.014 28.948 28.948 28.948zM333.569 702.997h144.618c15.933 0 28.948-13.014 28.948-28.948s-13.014-28.948-28.948-28.948h-144.618c-15.933 0-28.826 13.014-28.948 28.948 0 15.933 13.014 28.948 28.948 28.948zM333.569 529.553h144.618c15.933 0 28.948-13.014 28.948-28.948s-13.014-28.948-28.948-28.948h-144.618c-15.933 0-28.948 13.014-28.948 28.948s13.014 28.948 28.948 28.948zM333.569 356.109h144.618c15.933 0 28.948-13.014 28.948-28.948s-13.014-28.948-28.948-28.948h-144.618c-15.933 0-28.948 13.014-28.948 28.948s13.014 28.948 28.948 28.948z" />
<glyph unicode="&#xe913;" glyph-name="assetsManage" d="M78.635-53.806c-12.223 12.223-13.086 29.296-2.26 44.751l7.937 11.331h420.33c413.532 0 420.495-0.165 430.526-10.197 5.608-5.608 10.197-15.933 10.197-22.943s-4.589-17.335-10.197-22.943c-10.031-10.031-16.995-10.197-428.266-10.197s-418.235 0.166-428.266 10.197zM133.443 48.571c-10.249 5.97-11.975 30.189-2.804 39.359 4.646 4.646 95.17 6.118 376.263 6.118s371.616-1.472 376.263-6.118c8.579-8.579 7.615-27.345-1.894-36.854-7.137-7.137-47.898-7.995-373.458-7.857-238.723 0.101-368.541 1.957-374.369 5.352zM169.132 135.244c-10.242 5.965-11.82 25.245-2.804 34.261 3.365 3.365 11.395 6.118 17.844 6.118h11.726v319.091l-16.57 4.878c-18.116 5.333-24.752 22.539-13.788 35.749 8.076 9.731 162.49 10.852 172.093 1.249 14.689-14.689 3.436-39.768-17.844-39.768h-11.726v-321.2h11.726c14.61 0 23.963-8.954 23.963-22.943 0-20.796-8.412-22.951-88.967-22.788-42.579 0.086-80.702 2.468-85.653 5.352zM421.248 135.855c-14.689 14.689-3.436 39.768 17.844 39.768h11.726v321.2h-11.726c-21.28 0-32.533 25.079-17.844 39.768 9.603 9.603 164.017 8.482 172.093-1.249 10.964-13.211 4.328-30.416-13.788-35.749l-16.57-4.878v-319.091h11.726c6.449 0 14.479-2.753 17.844-6.118 9.366-9.366 7.28-28.59-3.744-34.49-14.326-7.667-159.785-6.937-167.563 0.84zM672.602 141.765c-10.41 15.888-5.139 27.798 14.562 32.901l16.026 4.151 2.694 318.006h-12.53c-7.168 0-15.926 4.849-20.466 11.331-9.885 14.113-9.878 16.59 0.075 26.543 11.522 11.522 165.957 11.9 175.476 0.43 10.558-12.722 1.996-33.072-15.376-36.547l-15.159-3.032v-319.925h11.726c22.411 0 31.721-22.104 15.951-37.874-6.59-6.59-21.95-8.012-86.555-8.012-76.903 0-78.708 0.251-86.424 12.028zM83.932 599.752c-12.755 13.691-13.36 30.537-1.473 41.002 4.907 4.32 98.399 68.289 207.76 142.153 167.122 112.876 201.684 134.279 216.682 134.181 14.857-0.098 52.416-23.552 224.33-140.088 162.205-109.954 206.849-142.538 208.18-151.941 2.154-15.215-17.224-36.465-33.251-36.465-7.213 0-85.853 50.424-198.784 127.46-116.267 79.313-191.475 127.46-199.095 127.46-16.851 0-10.213 4.176-210.714-132.547-107.767-73.487-184.208-122.373-191.348-122.373-6.54 0-16.569 5.021-22.286 11.158zM273.104 603.331c-4.038 2.558-5.59 8.364-3.729 13.943 1.754 5.257 52.34 42.635 112.413 83.061 82.392 55.446 113.12 73.502 125.084 73.502 11.89 0 40.308-16.487 113.513-65.854 53.709-36.22 104.062-71.221 111.897-77.779 15.967-13.366 18.221-23.696 6.18-28.317-12.635-4.849-457.606-3.467-465.358 1.445z" />
<glyph unicode="&#xe914;" glyph-name="tenantManage" d="M812.984 318.697c17.768 1.612 33.898 4.838 33.898 33.948 0 11.316-11.291 27.472-22.582 37.175l-1.613 1.612c-37.125 29.084-75.862 56.58-119.437 72.735 56.464 48.369 92.017 119.745 92.017 199.424 0 0.348-0.001 0.695-0.002 1.043v-0.054c-0.050 145.446-117.873 263.42-263.142 263.42s-264.68-117.975-264.68-265.058c-0.001-0.3-0.002-0.655-0.002-1.010 0-79.668 35.543-151.034 91.638-199.106l0.354-0.297c-179.167-67.871-308.282-242.4-308.282-447.652 0-25.858 11.291-46.852 38.738-46.852 19.38 0 27.445 19.406 29.058 45.239 6.452 198.8 163.013 402.412 413.2 407.277 79.087 1.612 196.91-35.561 250.163-87.278 16.156-14.542 27.446-16.155 27.446-16.155l3.226 1.588zM530.535 501.341c-122.663 0-180.779 87.278-180.779 171.305 0 82.438 67.795 181.031 180.779 181.031 132.34 0 180.755-98.593 180.755-181.031 1.612-84.026-75.861-174.555-180.755-171.304zM619.274 199.11c0-25.858 20.994-38.787 48.415-38.787h256.641c25.832 0 48.413 12.929 48.413 38.787s-20.993 37.174-48.414 37.174h-256.613c-27.446 0-48.441-9.703-48.441-37.174zM922.743 43.961h-255.028c-25.808 0-48.414-9.703-48.414-35.561s20.994-35.56 48.415-35.56h256.641c25.832 0 48.413 9.703 48.413 35.56-1.612 25.858-24.219 35.561-50.027 35.561z" />
<glyph unicode="&#xe915;" glyph-name="lookRecord" d="M151.808 42.24h222.336c24.566 0 44.48-19.914 44.48-44.48s-19.914-44.48-44.48-44.48v0h-244.544c-36.831 0-66.688 29.857-66.688 66.688v0 844.864c0 36.864 29.888 66.688 66.688 66.688h755.904c36.864 0 66.688-29.888 66.688-66.688v-289.024c0-24.566-19.914-44.48-44.48-44.48s-44.48 19.914-44.48 44.48v0 266.816h-711.424v-800.384zM285.184 664.768h444.672c24.576 0 44.416-19.904 44.416-44.416v-0.064c0-24.53-19.886-44.416-44.416-44.416v0h-444.672c-24.53 0-44.416 19.886-44.416 44.416v0 0.064c0 24.512 19.904 44.416 44.416 44.416zM285.184 486.912h311.296c24.576 0 44.416-19.904 44.416-44.416v-0.064c0-24.53-19.886-44.416-44.416-44.416v0h-311.296c-23.829 0.933-42.793 20.476-42.793 44.448s18.964 43.515 42.709 44.445l0.085 0.003zM957.248 249.344l-269.952-269.952c-16.078-16.093-38.298-26.048-62.843-26.048-0.002 0-0.003 0-0.005 0h-62.912c-49.131 0-88.96 39.829-88.96 88.96v0 62.912c0 23.616 9.344 46.208 26.048 62.912l269.952 269.952c24.233 24.68 57.95 39.976 95.24 39.976 73.697 0 133.44-59.743 133.44-133.44 0-37.306-15.309-71.036-39.987-95.251l-0.021-0.020zM831.488 375.104l-269.952-269.952v-62.848h62.912l269.952 269.952c6.946 7.82 11.189 18.176 11.189 29.523 0 24.601-19.943 44.544-44.544 44.544-11.363 0-21.732-4.255-29.602-11.258l0.045 0.039z" />
<glyph unicode="&#xe916;" glyph-name="brandInfo" d="M382.976 561.152c17.92 0 30.72 12.8 30.72 30.72v50.688c0 12.288 8.192 20.48 20.48 20.48h152.576c12.288 0 20.48-8.192 20.48-20.48v-51.2c0-17.92 12.8-30.72 30.72-30.72s30.72 12.8 30.72 30.72v51.2c0 46.592-34.816 81.408-81.408 81.408h-153.6c-46.592 0-81.408-34.816-81.408-81.408v-51.2c0-17.92 12.8-30.208 30.72-30.208zM663.552 478.72l-66.048 9.728-29.184 63.488c-8.192 21.504-31.744 36.352-58.368 36.352-27.136 0-50.176-15.36-58.368-38.912l-29.184-63.488-65.536-9.728c-24.576-2.56-44.032-19.456-52.736-44.032-8.192-22.016-3.072-46.592 13.824-66.56l51.712-51.712-12.288-73.728c-3.072-27.136 7.168-50.688 27.648-62.976 9.728-7.68 23.040-11.264 38.4-11.264 11.776 0 22.528 3.072 30.72 8.192l55.808 31.744 56.32-31.744c10.752-5.632 22.016-8.192 32.768-8.192 11.264 0 23.552 3.584 37.888 10.752l0.512 0.512c19.456 13.824 30.208 38.912 27.648 63.488l-12.288 73.728 51.712 51.712 0.512 1.024c14.336 23.552 18.432 47.616 10.752 68.096-8.192 22.016-27.648 38.4-52.224 43.52zM659.968 414.72l-64.512-67.072c-3.072-3.072-6.656-9.728-6.656-16.384l15.36-92.16v-2.56c-1.536-0.512-2.56-1.536-3.072-2.048h-3.072l-76.288 43.008h-1.536c-0.512 0-1.024 0.512-1.536 0.512-1.536 1.024-3.584 2.048-6.144 2.048s-6.656 0-10.752-3.584l-74.752-41.984h-4.096l-2.56 2.56 15.36 93.184v1.024c0 5.12 0 12.8-7.168 16.896l-68.096 65.536c-1.024 1.024-1.024 1.536-1.024 3.072 0.512 0.512 2.048 1.024 2.56 1.024l89.6 12.8c7.168 0 12.8 6.144 15.872 9.216l0.512 0.512 38.912 82.944v1.536c0 1.536 0.512 2.048 0.512 2.048h2.048c0.512 0 2.048-0.512 2.56-1.024l38.912-82.432c3.072-6.144 9.728-10.24 16.896-10.24l89.088-12.8c0.512 0 1.536-1.024 2.56-2.048 0.512-1.536 0.512-2.56 0.512-3.584zM509.952 925.696c-265.216 0-480.768-215.552-480.768-480.768s215.552-480.768 480.768-480.768c265.216 0 480.768 215.552 480.768 480.768s-215.552 480.768-480.768 480.768zM509.952 18.944c-235.008 0-425.984 190.976-425.984 425.984s190.976 425.984 425.984 425.984 425.984-190.976 425.984-425.984c0-235.008-190.976-425.984-425.984-425.984z" />
<glyph unicode="&#xe917;" glyph-name="bookedRoom" horiz-adv-x="1088" d="M479.36 233.472c-5.728 6.651-9.216 15.373-9.216 24.91 0 0.018 0 0.035 0 0.053v-0.003 221.568c0 21.208 17.192 38.4 38.4 38.4s38.4-17.192 38.4-38.4v-188.992l189.44-31.616c18.946-2.56 33.398-18.629 33.398-38.073 0-21.208-17.192-38.4-38.4-38.4-2.692 0-5.32 0.277-7.855 0.804l0.249-0.043-221.504 36.928c-9.337 1.581-17.351 6.349-23.056 13.126l-0.048 0.058zM924.8 463.872v-408.64c0-54.976-41.216-101.12-94.4-101.12h-560c-53.12 0-94.4 46.144-94.4 101.12v408.704l-46.336-46.72c-6.941-6.902-16.509-11.169-27.074-11.169-21.208 0-38.4 17.192-38.4 38.4 0 10.453 4.177 19.931 10.953 26.855l-0.007-0.007 448 451.712c6.96 7.016 16.605 11.359 27.264 11.359s20.304-4.343 27.262-11.356l448.002-451.715c6.769-6.917 10.946-16.395 10.946-26.849 0-21.208-17.192-38.4-38.4-38.4-10.565 0-20.133 4.266-27.076 11.17l0.002-0.002-46.336 46.72zM252.8 541.312v-486.080c0-14.4 8.96-24.32 17.6-24.32h560c8.704 0 17.6 9.92 17.6 24.32v486.144l-297.6 300.096-297.6-300.16z" />
<glyph unicode="&#xe918;" glyph-name="bookingRoom" d="M758.592 231.118h75.265c17.502 0 31.691-14.188 31.691-31.691s-14.188-31.691-31.691-31.691h-106.956c-17.502 0-31.691 14.188-31.691 31.691 0 2.558 0.303 5.045 0.875 7.427-0.556 2.225-0.875 4.779-0.875 7.407 0 0.007 0 0.014 0 0.021v-0.001 104.975c0 17.502 14.188 31.691 31.691 31.691s31.691-14.188 31.691-31.691v-88.139zM818.012 491.574c-17.502 0-31.691 14.188-31.691 31.691v301.060c0 4.376-3.547 7.923-7.923 7.923h-643.714c-4.376 0-7.923-3.547-7.923-7.923v0-744.727c0-4.376 3.547-7.923 7.923-7.923h286.205c17.502 0 31.691-14.188 31.691-31.691s-14.188-31.691-31.691-31.691h-325.818c-17.502 0-31.691 14.188-31.691 31.691v823.954c0 17.502 14.188 31.691 31.691 31.691h722.94c17.502 0 31.691-14.188 31.691-31.691v-340.673c0-17.502-14.188-31.691-31.691-31.691zM208.959 691.621h466.445c17.502 0 31.691-14.188 31.691-31.691s-14.188-31.691-31.691-31.691h-466.445c-17.502 0-31.691 14.188-31.691 31.691s14.188 31.691 31.691 31.691zM213.911 487.613h209.95c17.502 0 31.691-14.188 31.691-31.691s-14.188-31.691-31.691-31.691h-209.95c-17.502 0-31.691 14.188-31.691 31.691s14.188 31.691 31.691 31.691zM213.911 283.605h209.95c17.502 0 31.691-14.188 31.691-31.691s-14.188-31.691-31.691-31.691h-209.95c-17.502 0-31.691 14.188-31.691 31.691s14.188 31.691 31.691 31.691zM514.971 487.613h43.574c17.502 0 31.691-14.188 31.691-31.691s-14.188-31.691-31.691-31.691h-43.574c-17.502 0-31.691 14.188-31.691 31.691s14.188 31.691 31.691 31.691zM726.901 8.294c-123.609 0-223.814 100.205-223.814 223.814s100.205 223.814 223.814 223.814 223.814-100.205 223.814-223.814-100.205-223.814-223.814-223.814zM726.901 63.752c92.98 0 168.356 75.376 168.356 168.356s-75.376 168.356-168.356 168.356-168.356-75.376-168.356-168.356 75.376-168.356 168.356-168.356z" />
<glyph unicode="&#xe919;" glyph-name="investmentCase" d="M436.982 448.299h261.211v37.316h-261.211v-37.316zM325.035 336.353h37.316v37.316h-37.316v-37.316zM436.982 336.353h261.211v37.316h-261.211v-37.316zM325.035 448.299h37.316v37.316h-37.316v-37.316zM213.087 187.090h597.053v447.788h-298.526l-37.316 74.632h-261.211v-522.42zM250.403 597.562h522.422v-373.158h-522.422v373.158zM101.139 821.457l37.316 37.316h149.264v37.317h-186.579l-37.316-37.316v-186.58h37.316v149.264zM101.139 75.142v149.264h-37.316v-186.578l37.316-37.317h186.579v37.317h-149.264l-37.316 37.315zM922.087 75.142l-37.315-37.316h-149.264v-37.317h186.578l37.317 37.317v186.578h-37.317v-149.263zM922.087 896.089h-186.578v-37.316h149.264l37.315-37.316v-149.264h37.317v186.579l-37.317 37.316z" />
<glyph unicode="&#xe91a;" glyph-name="investmentLook" d="M339.968 97.792h-167.936c10.24 47.104 30.72 102.4 61.44 149.504 47.104 71.68 104.448 120.832 165.888 141.312 16.384 6.144 30.72 20.48 32.768 38.912s-6.144 36.864-20.48 47.104c-43.008 30.72-75.776 96.256-75.776 157.696 0 45.056 18.432 90.112 49.152 120.832 32.768 32.768 75.776 49.152 120.832 49.152s88.064-18.432 120.832-51.2c32.768-32.768 51.2-77.824 51.2-124.928 0-14.336-2.048-28.672-6.144-45.056-6.144-26.624 8.192-51.2 34.816-59.392 24.576-6.144 51.2 10.24 57.344 34.816 6.144 22.528 8.192 45.056 8.192 67.584 0 36.864-6.144 71.68-20.48 104.448-12.288 32.768-32.768 61.44-57.344 86.016s-53.248 45.056-83.968 59.392c-32.768 16.384-67.584 24.576-104.448 24.576-71.68 0-137.216-26.624-186.368-77.824s-77.824-118.784-77.824-190.464c0-65.536 22.528-133.12 61.44-184.32-55.296-32.768-106.496-83.968-147.456-149.504-24.576-38.912-47.104-81.92-61.44-124.928s-22.528-86.016-22.528-124.928c0-26.624 20.48-49.152 47.104-49.152h221.184c26.624 0 47.104 22.528 47.104 49.152 0 28.672-20.48 51.2-47.104 51.2zM968.704 239.104c0 2.048-20.48 53.248-65.536 102.4-59.392 67.584-137.216 104.448-221.184 104.448s-161.792-36.864-221.184-104.448c-45.056-49.152-63.488-100.352-65.536-102.4-4.096-12.288-4.096-24.576 0-34.816 0-2.048 20.48-53.248 65.536-102.4 59.392-67.584 137.216-104.448 221.184-104.448s161.792 36.864 221.184 104.448c45.056 49.152 63.488 100.352 65.536 102.4 6.144 12.288 6.144 24.576 0 34.816zM831.488 163.328c-43.008-47.104-92.16-69.632-149.504-69.632s-106.496 24.576-149.504 69.632c-18.432 20.48-32.768 43.008-40.96 57.344 8.192 14.336 20.48 36.864 40.96 57.344 43.008 47.104 92.16 69.632 149.504 69.632s106.496-24.576 149.504-69.632c18.432-20.48 32.768-43.008 40.96-57.344-8.192-14.336-20.48-34.816-40.96-57.344zM681.984 294.4c-38.912 0-71.68-32.768-71.68-71.68s32.768-71.68 71.68-71.68 71.68 32.768 71.68 71.68-30.72 71.68-71.68 71.68z" />
<glyph unicode="&#xe91b;" glyph-name="investmentManage" horiz-adv-x="1303" d="M1285.259 638.929l-314.507 305.245c-9.902 9.481-23.361 15.317-38.183 15.317-0.224 0-0.447-0.001-0.67-0.004h0.034c-17.222 0-34.49-7.354-47.383-20.061l-207.779-205.452-216.343 208.617c-11.166 10.772-26.383 17.408-43.151 17.408-0.081 0-0.161 0-0.242 0h0.012c-16.663 0-32.303-6.377-43.985-17.967l-355.281-351.558c-10.974-10.798-17.774-25.811-17.774-42.411 0-16.874 7.026-32.107 18.312-42.934l0.021-0.020 444.416-428.59 127.907-124.137c10.147-9.821 23.924-15.267 38.819-15.267 3.305 0 6.656 0.279 9.914 0.791 13.964 1.583 26.857 7.68 36.864 17.594l355.235 351.511c1.955 1.955 3.77 4.003 5.446 6.144l244.224 241.478c24.855 24.576 26.671 62.371 4.096 84.247zM989.696 347.322l-52.038-51.479-155.229 147.689c-6.33 6.051-17.222 5.167-24.297-1.955l-24.669-24.669c-7.075-7.121-7.68-17.78-1.35-23.831l154.857-147.363-48.547-48.035-155.276 147.828c-6.33 6.051-17.222 5.12-24.343-1.955l-24.623-24.669c-7.075-7.168-7.68-17.827-1.396-23.831l154.996-147.549-48.268-47.709-155.136 147.642c-6.33 6.051-17.222 5.167-24.297-1.955l-24.669-24.669c-7.075-7.121-7.68-17.78-1.35-23.785l154.81-147.363-54.458-53.853c-0.557-0.527-1.311-0.851-2.141-0.851s-1.584 0.324-2.143 0.853l0.001-0.001-570.507 550.12c-0.543 0.533-0.88 1.274-0.88 2.095s0.337 1.562 0.88 2.094v0l355.235 351.558c0.54 0.547 1.29 0.885 2.119 0.885 0.024 0 0.048 0 0.072-0.001h-0.004c0.838 0 1.536-0.279 2.141-0.884l570.507-550.167c0.559-0.559 0.884-1.257 0.931-2.095 0-0.011 0-0.025 0-0.039 0-0.832-0.358-1.581-0.929-2.1l-0.002-0.002zM1239.412 594.99l-206.708-204.334c-0.584 0.608-1.161 1.185-1.748 1.749l-0.020 0.019-312.32 301.242 207.732 205.405c1.254 1.279 2.821 2.245 4.578 2.773l0.076 0.020 311.296-302.126c-0.542-1.882-1.545-3.487-2.88-4.743l-0.005-0.005z" />
<glyph unicode="&#xe91c;" glyph-name="investmentChannels" d="M856.64 367.872c-4.16 0-8.32-0.128-12.48-0.512l-63.104 135.36c55.422 47.422 90.326 117.438 90.326 195.605 0 141.915-115.045 256.96-256.96 256.96s-256.96-115.045-256.96-256.96c0-53.943 16.622-104.004 45.024-145.34l-0.565 0.871-181.12-249.216c-11.807 2.817-25.363 4.433-39.296 4.433-97.33 0-176.248-78.834-176.384-176.132v-0.013c0-0.009 0-0.020 0-0.031 0-97.308 78.884-176.192 176.192-176.192s176.192 78.884 176.192 176.192c0 53.488-23.834 101.409-61.461 133.722l-0.235 0.197 162.368 227.392c42.654-33.019 96.908-52.928 155.813-52.928 0.145 0 0.289 0 0.434 0h-0.023c0.111 0 0.242 0 0.374 0 35.259 0 68.854 7.128 99.421 20.022l-1.683-0.63 56.768-121.6c-36.257-27.044-59.482-69.818-59.482-118.016 0-81.084 65.732-146.816 146.816-146.816s146.816 65.732 146.816 146.816c0 81.075-65.717 146.801-146.788 146.816h-0.001zM181.312 17.92c-63.588 0-115.136 51.548-115.136 115.136s51.548 115.136 115.136 115.136v0c63.588 0 115.136-51.548 115.136-115.136s-51.548-115.136-115.136-115.136v0zM417.344 698.24c0.146 108.615 88.229 196.608 196.864 196.608 0.068 0 0.135 0 0.203 0h-0.010c108.8 0 196.992-88 196.992-196.608-0.146-108.615-88.229-196.608-196.864-196.608-0.045 0-0.090 0-0.135 0h0.007c-0.076 0-0.166 0-0.256 0-108.635 0-196.718 87.993-196.864 196.594v0.014zM856.64 136.704c-0.692-0.020-1.507-0.032-2.324-0.032-46.622 0-84.416 37.794-84.416 84.416s37.794 84.416 84.416 84.416c0.817 0 1.632-0.012 2.443-0.035l-0.119 0.003c45.611-1.296 82.092-38.58 82.092-84.384s-36.481-83.088-81.973-84.381l-0.119-0.003z" />
<glyph unicode="&#xe91d;" glyph-name="rentIntention" d="M589.946 25.478h-426.155c-40.034 0-72.655 32.354-72.655 72.046v704.293c0 39.668 32.622 72.021 72.655 72.021h639.269c40.034 0 72.655-32.354 72.655-72.021v-356.596c0-19.578 15.97-35.377 35.718-35.377s35.694 15.799 35.694 35.377v356.596c0 78.604-64.61 142.677-143.945 142.677h-639.39c-79.287 0-143.945-63.976-143.945-142.677v-704.293c0-78.604 64.658-142.677 143.945-142.677h426.179c19.749 0 35.669 15.799 35.669 35.377-0.207 19.515-16.075 35.255-35.619 35.255-0.026 0-0.053 0-0.079 0h0.004zM768.658 732.428h-570.587c-19.749 0-35.694-15.799-35.694-35.377 0-19.602 15.921-35.401 35.694-35.401h570.539c19.749 0 35.718 15.799 35.718 35.401-0.111 19.562-15.994 35.377-35.571 35.377-0.052 0-0.103 0-0.155 0h0.008zM536.162 520.363h-338.066c-19.749 0-35.694-15.799-35.694-35.377s15.921-35.377 35.694-35.377h338.066c19.749 0 35.694 15.799 35.694 35.352-0.097 19.572-15.986 35.401-35.571 35.401-0.043 0-0.086 0-0.129 0h0.007zM421.644 308.443c19.651 0 35.596-15.921 35.694-35.401 0-19.578-15.921-35.352-35.694-35.352h-223.549c-19.749 0-35.694 15.774-35.694 35.352 0 19.602 15.921 35.401 35.694 35.401h223.573zM922.088 155.112c30.939 52.809 18.188 101.474-13.946 110.056-23.284 6.193-35.279 3.316-56.808-10.728-3.584-2.341-16.945-11.459-18.139-12.288l-4.267-2.828c-5.45-3.61-12.141-5.76-19.334-5.76s-13.884 2.15-19.466 5.842l0.132-0.082-4.267 2.828c-1.219 0.805-14.58 9.947-18.139 12.264-21.528 14.068-33.548 16.945-56.808 10.728-32.134-8.533-44.885-57.222-13.946-110.031 23.528-40.155 60.538-79.872 111.25-118.882 52.907 40.35 90.99 80.091 113.737 118.882zM812.739 312.466c36.962 24.137 68.779 31.768 113.615 19.822 81.871-21.821 108.446-123.246 56.369-212.114-31.208-53.224-82.895-104.692-153.893-155.502-12.264-8.777-28.77-8.777-41.033 0-68.803 49.225-119.345 100.937-151.333 155.526-52.078 88.844-25.527 190.269 56.369 212.114 44.837 11.947 76.629 4.315 113.615-19.846 0.78-0.488 1.877-1.219 3.145-2.097l3.145 2.097z" />
<glyph unicode="&#xe91e;" glyph-name="reward" d="M957.943 634.817c0 34.529-27.906 62.621-62.206 62.621h-81.904c4.53 4.753 8.627 9.827 12.273 15.231 37.246 55.211 11.427 120.842 10.31 123.609l-0.757 1.876-1.044 1.733c-13.141 21.841-28.438 38.506-45.468 49.53-16.869 10.921-35.473 16.458-55.293 16.458-50.206 0-106.679-35.837-167.847-106.516-23.134-26.731-42.437-53.256-55.571-72.451-13.135 19.195-32.437 45.72-55.571 72.451-61.169 70.679-117.64 106.515-167.847 106.515-19.82 0-38.424-5.537-55.293-16.458-17.030-11.024-32.327-27.689-45.468-49.53l-1.043-1.733-0.757-1.876c-1.117-2.767-26.936-68.397 10.309-123.607 3.646-5.405 7.744-10.48 12.276-15.234h-80.382c-34.3 0-62.206-28.092-62.206-62.621v-195.446h82.768c-0.655-3.636-1.015-7.374-1.015-11.196v-340.635c0-34.529 27.906-62.62 62.206-62.62h605.574c34.3 0 62.205 28.091 62.205 62.62v340.636c0 3.823-0.36 7.56-1.015 11.196h82.768v195.447zM605.136 766.386c49.401 56.956 95.114 88.324 128.718 88.324 7.813 0 31.319-0.002 55.664-39.147 2.795-8.317 13.653-45.744-6.020-74.562-17.706-25.938-57.406-40.855-115.388-43.562h-41.088c-21.539 0.889-44.999 3.083-70.188 6.565 12.196 17.484 28.922 40.038 48.302 62.383zM237.373 741.002c-19.711 28.876-8.771 66.392-6.003 74.609 7.202 11.782 25.49 39.097 55.646 39.097 33.603 0 79.315-31.366 128.717-88.324 19.38-22.344 36.106-44.899 48.303-62.385-25.188-3.481-48.647-5.675-70.183-6.565h-41.087c-57.984 2.709-97.687 17.627-115.393 43.566zM485.615 76.083h-277.204c-6.088 0-11.040 5.138-11.040 11.455v340.635c0 5.49 3.742 10.086 8.719 11.196h279.526v-363.286zM485.615 490.535l-277.204 0.26c-1.86 0-3.697-0.098-5.517-0.26h-87.276v144.282c0 6.317 4.953 11.456 11.040 11.456h225.193c6.732-0.293 13.629-0.454 20.73-0.454 0.002 0 0.005 0 0.007 0 7.164 0 14.55 0.156 22.137 0.454h90.889v-155.738zM825.025 87.538c0-6.317-4.953-11.455-11.039-11.455h-277.204v363.286h279.525c4.975-1.11 8.718-5.707 8.718-11.196v-340.635zM906.777 490.535h-87.276c-1.819 0.162-3.656 0.26-5.517 0.26v-0.26h-277.203v155.737h89.367c7.588-0.299 14.975-0.454 22.14-0.454 7.104 0 14.003 0.163 20.737 0.454h226.71c6.088 0 11.040-5.139 11.040-11.456v-144.281z" />
<glyph unicode="&#xe91f;" glyph-name="KPPatrol" d="M512 53.029c-214.557 196.491-321.829 353.47-321.829 470.923 0 176.187 144.091 319.020 321.829 319.020s321.829-142.833 321.829-319.020c0-117.467-107.271-274.432-321.829-470.923zM512 301.714c121.183 0 219.429 98.245 219.429 219.429s-98.245 219.429-219.429 219.429c-121.183 0-219.429-98.245-219.429-219.429s98.245-219.429 219.429-219.429zM512 360.229c-88.869 0-160.914 72.046-160.914 160.914s72.046 160.914 160.914 160.914 160.914-72.046 160.914-160.914-72.046-160.914-160.914-160.914zM541.257 550.4v52.487c0 16.158-13.099 29.257-29.257 29.257s-29.257-13.099-29.257-29.257v0-81.744c0-16.158 13.099-29.257 29.257-29.257v0h81.101c16.158 0 29.257 13.099 29.257 29.257s-13.099 29.257-29.257 29.257h-51.844z" />
<glyph unicode="&#xe920;" glyph-name="LXSettlement" d="M926.2 623.5c-22.6 53.3-55.2 101.7-96.2 142.6-84 84.2-198.2 131.5-317.2 131.4-119 0.2-233.2-47.1-317.2-131.4-41-40.9-73.6-89.3-96.1-142.6-23.4-55.2-35.4-114.6-35.3-174.6 0-60.5 11.9-119.3 35.3-174.6 22.5-53.3 55.2-101.7 96.1-142.6 40.9-41 89.3-73.6 142.6-96.1 55.3-23.4 114.6-35.4 174.6-35.3 89.3-0.1 176.6 26.5 250.6 76.4 13.9 10.2 17.2 29.5 7.6 43.8s-28.8 18.4-43.4 9.4c-63.4-42.8-138.2-65.6-214.7-65.5-212 0-384.5 172.5-384.5 384.5s172.5 384.5 384.5 384.5 384.5-172.5 384.5-384.5c0-81.7-25.3-159.7-73.2-225.7-9.9-14.3-6.6-33.9 7.5-44.2 14.1-10.2 33.8-7.3 44.4 6.5 55.7 76.5 85.6 168.7 85.4 263.3-0.1 60.6-11.9 119.4-35.3 174.7zM666.2 665.5c-12.5 12.5-32.8 12.5-45.3 0l-90.6-90.6c-8.3-8.3-11.3-20.4-8.1-31.6h-15.4c3.3 11.2 0.2 23.3-8.1 31.6l-90.7 90.6c-12.5 12.5-32.8 12.5-45.3 0s-12.5-32.8 0-45.3l76.9-76.9h-57.4c-17.6 0-32-14.4-32-32 0-17.7 14.4-32 32-32h96.1v-64.1h-96.1c-17.6 0-32-14.4-32-32.1 0-17.6 14.4-32 32-32h96.1v-96.1c0-17.6 14.4-32 32.1-32 17.6 0 32 14.4 32 32v96h96.1c17.6 0 32 14.4 32 32s-14.4 32.1-32 32.1h-96.1v64.1h96.1c17.7 0 32 14.4 32 32s-14.4 32-32 32h-49.3l77 76.9c12.4 12.7 12.4 32.9 0 45.4z" />
<glyph unicode="&#xe921;" glyph-name="turnoverEntry" d="M975.992 5.818h-927.977c-26.585 0.314-48.015 21.938-48.015 48.567 0 0.198 0.001 0.395 0.004 0.592v-0.030 786.129c-0.002 0.167-0.003 0.364-0.003 0.561 0 26.625 21.433 48.243 47.986 48.544h0.028c26.574-0.327 47.991-21.946 47.991-48.567 0-0.189-0.001-0.379-0.003-0.567v0.029-737.001h879.988c26.487-0.841 47.64-22.515 47.64-49.129s-21.152-48.288-47.563-49.127l-0.077-0.002zM863.98 153.228h-95.977c-26.587 0.327-48.015 21.956-48.015 48.59 0 0.189 0.001 0.379 0.003 0.567v-0.029 343.901c-0.002 0.16-0.003 0.349-0.003 0.539 0 26.634 21.427 48.263 47.984 48.59h96.031c26.582-0.3 48.015-21.919 48.015-48.544 0-0.206-0.001-0.411-0.004-0.616v0.031-343.924c0.002-0.174 0.004-0.379 0.004-0.585 0-26.625-21.433-48.244-47.987-48.544h-0.028zM592.015 153.204l171.962-28.346c-26.508 0-315.951 50.339-315.951 77.475v540.463c-0.002 0.167-0.003 0.364-0.003 0.562 0 26.629 21.43 48.253 47.985 48.567h96.030c26.567-0.353 47.968-21.972 47.968-48.589 0-0.19-0.001-0.379-0.003-0.568v0.029-540.463c0.002-0.167 0.003-0.364 0.003-0.562 0-26.629-21.43-48.253-47.985-48.567h-0.030zM320.003 153.204h-96.023c-26.582 0.3-48.015 21.919-48.015 48.544 0 0.206 0.001 0.411 0.004 0.616v-0.031 98.257c-0.002 0.167-0.003 0.364-0.003 0.562 0 26.629 21.43 48.253 47.985 48.567h96.053c26.585-0.314 48.015-21.938 48.015-48.567 0-0.198-0.001-0.395-0.004-0.592v0.030-98.257c0.002-0.167 0.003-0.364 0.003-0.562 0-26.629-21.43-48.253-47.985-48.567h-0.030z" />
<glyph unicode="&#xe922;" glyph-name="tenantEval" d="M510.448 960c156.594-0.065 283.513-127.024 283.513-283.626 0-0.040 0-0.080 0-0.12v0.006c0-0.111 0-0.243 0-0.374 0-83.239-35.922-158.088-93.11-209.89l-0.24-0.214c12.348-10.457 20.135-25.971 20.135-43.304 0-31.278-25.356-56.634-56.634-56.634-7.003 0-13.71 1.271-19.901 3.595l0.391-0.129c-39.891 14.763-85.967 23.305-134.039 23.305-219.324 0-397.122-177.798-397.122-397.122 0-0.073 0-0.146 0-0.219v0.011c0.037-0.766 0.058-1.663 0.058-2.565 0-31.341-25.407-56.748-56.748-56.748s-56.748 25.407-56.748 56.748c0 0.882 0.020 1.76 0.060 2.632l-0.004-0.124c0 0.033 0 0.072 0 0.111 0 212.427 129.646 394.574 314.13 471.633l3.375 1.25c-56.023 51.965-90.969 125.977-90.969 208.152 0 156.642 126.984 283.626 283.626 283.626 0.081 0 0.161 0 0.242 0h-0.013zM857.632 335.829l40.915-41.766c8.909-9.080 19.294-16.684 30.644-22.302l50.96-25.31c34.503-17.138 49.938-57.486 36.659-92.84l-3.802-8.399-26.331-50.392c-5.594-10.449-9.71-22.601-11.668-35.462l-0.079-0.63-8.285-56.294c-5.469-36.199-36.362-63.628-73.662-63.628-1.136 0-2.267 0.025-3.391 0.076l0.16-0.006-8.399 0.851-56.805 9.647c-5.698 1.016-12.258 1.596-18.954 1.596s-13.255-0.581-19.632-1.694l0.678 0.098-56.067-9.534c-3.727-0.661-8.018-1.039-12.397-1.039-34.057 0-62.773 22.867-71.633 54.085l-0.127 0.525-1.929 9.080-8.285 56.18c-2.011 13.507-6.108 25.68-11.988 36.764l0.298-0.615-26.388 50.392c-5.338 10.011-8.473 21.894-8.473 34.509 0 25.834 13.147 48.596 33.116 61.963l0.27 0.17 7.945 4.597 50.96 25.31c11.406 5.675 21.791 13.166 30.644 22.302l39.78 40.632c13.52 13.822 32.359 22.391 53.201 22.391 20.277 0 38.66-8.112 52.079-21.268l-0.012 0.012zM805.594 226.873l-11.917-12.201c-17.819-18.216-38.532-33.311-61.288-44.604l-15.322-7.547 7.945-15.095c11.804-22.586 19.692-46.987 23.38-72.183l2.497-16.797 16.797 2.837c11.397 2.031 24.517 3.192 37.908 3.192s26.511-1.161 39.265-3.388l-1.357 0.196 16.741-2.837 2.497 16.797c3.745 25.196 11.633 49.598 23.437 72.183l7.888 15.095-15.265 7.547c-23.661 11.908-43.898 26.817-61.246 44.562l-0.041 0.042-11.917 12.144zM510.448 846.504c-93.967-0.032-170.13-76.215-170.13-170.187 0-0.020 0-0.040 0-0.060v0.003c0.032-93.967 76.215-170.13 170.187-170.13 93.992 0 170.187 76.195 170.187 170.187s-76.195 170.187-170.187 170.187c-0.020 0-0.040 0-0.060 0h0.003z" />
<glyph unicode="&#xe923;" glyph-name="workflowManage" d="M857.9 284.1l-217.8 380.4v167.5h-256v-170.8l-214.6-374.7c-25.5-23.4-41.5-57-41.5-94.3 0-70.6 57.2-127.8 127.8-127.8 59.5 0 109.6 40.7 123.8 95.8h265.8c14.2-55.1 64.2-95.8 123.8-95.8 70.6 0 127.8 57.2 127.8 127.8-0.1 36.1-15.1 68.7-39.1 91.9zM448.1 768h128v-128h-128v128zM255.9 128.4c-35.2 0-63.9 28.6-63.9 63.8s28.7 63.8 63.9 63.8 63.8-28.6 63.8-63.8-28.6-63.8-63.8-63.8zM645.3 224.2h-265.7c-13.7 53.1-60.5 92.8-117.1 95.6l146.5 256.2h208l146.6-256.1c-57.1-2.4-104.5-42.3-118.3-95.7zM769.1 128.4c-35.2 0-63.8 28.6-63.8 63.8s28.6 63.8 63.8 63.8c35.2 0 63.8-28.6 63.8-63.8s-28.6-63.8-63.8-63.8z" />
<glyph unicode="&#xe924;" glyph-name="processTemplate" d="M711.528 811.61h-513.271c-47.218-0.082-85.475-38.329-85.574-85.534v-655.848c0.082-47.228 38.346-85.492 85.566-85.574h513.279c47.242 0.049 85.525 38.332 85.575 85.569v655.843c-0.099 47.216-38.357 85.463-85.567 85.545h-0.008zM740.198 70.112c-0.017-15.769-12.788-28.549-28.551-28.582h-513.303c-15.766 0.033-28.537 12.813-28.554 28.58v655.84c0 15.782 12.887 28.553 28.554 28.553h513.271c15.812 0 28.554-12.886 28.554-28.553v-655.838zM911.318 825.569v-655.374c-0.066-47.212-38.263-85.48-85.442-85.661h-0.017v56.992c15.629 0.164 28.235 12.871 28.235 28.524 0 0.052 0 0.103 0 0.154v-0.008 655.372c0 0.044 0 0.095 0 0.147 0 15.658-12.603 28.372-28.218 28.552h-513.752c-15.613-0.164-28.207-12.858-28.207-28.495 0-0.072 0-0.144 0.001-0.215v0.011h-56.992c0 0.017 0 0.038 0 0.059 0 47.209 38.164 85.505 85.323 85.718h513.755c47.156-0.181 85.313-38.45 85.313-85.631 0-0.051 0-0.102 0-0.154v0.008zM224.61 665.802h204.683v-298.945h-204.683v298.945zM224.61 307.056h204.683v-179.344h-204.683v179.344zM480.608 665.802h204.712v-179.344h-204.712v179.344zM480.608 426.657h204.712v-298.945h-204.712v298.945z" />
<glyph unicode="&#xe925;" glyph-name="processManage" d="M808.741 347.063c3.62-4.081 5.83-9.484 5.83-15.402 0-6.971-3.067-13.226-7.925-17.489l-0.026-0.023-212.846-186.149c-4.083-3.592-9.474-5.783-15.376-5.783-4.513 0-8.727 1.281-12.298 3.5l0.099-0.057-210.871 130.56-200.119-174.811c-4.082-3.579-9.466-5.762-15.36-5.762-12.898 0-23.353 10.456-23.353 23.353 0 7.004 3.083 13.288 7.966 17.568l0.027 0.023 212.919 186.222c4.079 3.576 9.458 5.757 15.346 5.757 4.495 0 8.694-1.271 12.256-3.474l-0.1 0.058 210.871-130.633 200.119 174.811c4.064 3.523 9.404 5.669 15.245 5.669 7.009 0 13.296-3.090 17.573-7.982l0.023-0.027zM930.889 797.111v-791.259c0-38.552-31.232-69.81-69.774-69.851h-791.263c-38.578 0-69.851 31.274-69.851 69.851v791.259c0 38.546 31.232 69.778 69.851 69.778h791.259c38.546 0 69.778-31.232 69.778-69.778zM884.37 797.111c0 12.846-10.414 23.259-23.259 23.259v0h-791.259c-0.022 0-0.047 0-0.073 0-12.846 0-23.259-10.414-23.259-23.259 0 0 0 0 0 0v0-791.259c0-12.873 10.459-23.259 23.333-23.259h791.259c12.846 0 23.259 10.414 23.259 23.259v0 791.259zM954.149 960h-791.259c-0.001 0-0.003 0-0.005 0-12.846 0-23.259-10.414-23.259-23.259s10.414-23.259 23.259-23.259c0.002 0 0.003 0 0.005 0h791.259c12.873 0 23.259-10.459 23.259-23.333v-791.186c0-12.866 10.43-23.296 23.296-23.296s23.296 10.43 23.296 23.296v0 791.186c0 38.578-31.274 69.851-69.851 69.851v0zM256 424.741c25.712 0 46.555 20.844 46.555 46.555s-20.844 46.555-46.555 46.555v0c-25.712 0-46.555-20.844-46.555-46.555s20.844-46.555 46.555-46.555v0z" />
<glyph unicode="&#xe926;" glyph-name="processCondition" d="M811.3 502.8h-598.5c-73.3 0-133 59.7-133 133s59.7 133 133 133h509.8v-119.7c0-11 12.5-17.2 21.3-10.6l183.2 137.4c7.1 5.3 7.1 16 0 21.3l-183.2 137.4c-8.8 6.6-21.3 0.3-21.3-10.6v-75.4h-509.8c-117.3 0-212.8-95.5-212.8-212.8s95.5-212.8 212.8-212.8h598.5c73.3 0 133-59.7 133-133s-59.7-133-133-133h-218c-17.8 68.7-80.1 119.7-154.3 119.7-88 0-159.6-71.6-159.6-159.6s71.6-159.6 159.6-159.6c74.2 0 136.5 51 154.3 119.7h218c117.3 0 212.8 95.5 212.8 212.8s-95.5 212.8-212.8 212.8zM438.9 37.4c-44 0-79.8 35.8-79.8 79.8s35.8 79.8 79.8 79.8 79.8-35.8 79.8-79.8-35.8-79.8-79.8-79.8z" />
<glyph unicode="&#xe927;" glyph-name="processBusiness" d="M751.5 858.69v-692.15c0-21.77 16.12-39.43 36-39.43h132c19.88 0 36 17.65 36 39.43v692.15c0 21.77-16.12 39.43-36 39.43h-132c-19.88 0-36-17.66-36-39.43zM919.5 166.54h-132v692.15h132zM63.94 668.54v-505.42c0-19.882 16.118-36 36-36v0h132c19.882 0 36 16.118 36 36v0 505.42c0 19.882-16.118 36-36 36v0h-132c-19.882 0-36-16.118-36-36v0zM231.94 163.12h-132v504.37h132zM410 730.4v-567.28c0-19.882 16.118-36 36-36v0h132c19.882 0 36 16.118 36 36v0 567.28c0 19.882-16.118 36-36 36v0h-132c-19.882 0-36-16.118-36-36v0zM578 163.12h-132v567.28h132zM81.94 78.12h837.56v-76h-837.56v76z" />
<glyph unicode="&#xe928;" glyph-name="creater" d="M493.829 390.016c122.811 0 222.692 99.045 222.692 220.799s-99.867 221.183-222.692 221.183c-122.811 0-222.692-99.045-222.692-220.799 0.023-44.595 13.368-86.068 36.28-120.648l-0.504 0.811c20.323-30.696 47.106-55.537 78.542-73.021l1.138-0.585c-64.558-22.248-118.468-61.532-158.023-112.517l-0.569-0.763c-42.408-54.285-67.998-123.502-67.998-198.697 0-0.466 0.001-0.936 0.004-1.413v0.072-40.443h440.639v40.485h-394.751c0 157.605 129.024 285.53 287.972 285.53zM316.614 611.2c0 96.699 79.296 175.365 176.832 175.365s176.832-78.651 176.832-175.365c0-96.741-79.296-175.365-176.832-175.365-97.152-0.357-176.832 78.24-176.832 175.365zM785.284 188.924v78.075h-47.232v-78.075h-78.72v-46.848h78.72v-78.075h47.232v78.075h78.72v46.848h-78.72zM709.924 357.253l-13.605 10.395c-3.768 2.901-8.541 4.637-13.729 4.637-0.088 0-0.175-0.001-0.264-0.002h0.018c-0.15 0.005-0.32 0.008-0.504 0.008-7.224 0-13.656-3.461-17.696-8.808l-0.038-0.058c-2.983-3.797-4.776-8.644-4.776-13.907 0-7.368 3.528-13.918 8.982-18.049l0.059-0.039c3.744-2.853 7.365-5.76 10.917-8.763h65.595c-11.084 12.436-22.753 23.743-35.195 34.166l-0.517 0.421h0.768z" />
<glyph unicode="&#xe929;" glyph-name="recoveryAccount" d="M220.795 487.274h490.483c17.928 0 30.128 12.672 30.128 38.858 0 18.028-12.2 40.114-30.214 40.114h-490.397c-18 0-30.172-22.086-30.172-40.114s12.158-38.858 30.172-38.858zM220.952 683.545l215.599-1.214c18 0 30.214 22.085 30.214 40.157s-12.2 40.157-30.214 40.157l-215.599 1.228c-18 0-30.214-22.085-30.214-40.2s12.2-40.128 30.214-40.128zM398.422 54.519h-239.756c-25.003 0.073-45.246 20.347-45.271 45.354v737.27c0.049 24.994 20.281 45.247 45.263 45.328h615.804c25 0 56.372-15.871 56.372-40.914v-472.483c0-35.514 39.757-39.371 39.757-39.371 23.3 0 39.743 21.071 39.743 39.371v472.483c0 60.986-57.143 118.442-113.715 118.442h-660.052c-56.471 0-102.427-44.8-102.427-101.428v-780.852c0.033-56.585 45.854-102.456 102.416-102.57h262.438c16.614 0 28.414 9.686 28.414 41.143 0 25.785-14.186 38.185-29.057 38.185zM791.078 251.004h-198.743l58.785 52.757c6.965 6.954 11.273 16.567 11.273 27.186 0 21.216-17.199 38.416-38.416 38.416-10.597 0-20.193-4.291-27.143-11.23v0l-119.999-120.371c-6.927-6.971-11.209-16.578-11.209-27.185s4.282-20.214 11.211-27.187l-0.002 0.002 119.999-118.285c6.94-6.96 16.538-11.266 27.142-11.266s20.202 4.306 27.141 11.265l0.001 0.001v0.086c6.943 6.948 11.237 16.544 11.237 27.142s-4.294 20.194-11.237 27.143v0l-58.785 52.758h198.783c87.257 0 119.242-15.558 119.242-78.743 0-59.686-38.357-78.743-119.242-78.743h-79.5c-21.185 0-39.742-18.157-39.742-39.372s18.572-39.371 39.742-39.371h79.5c167.785 0 198.728 48.743 198.728 157.499 0 109.885-26.629 157.499-198.785 157.499z" />
<glyph unicode="&#xe92a;" glyph-name="backExamine" d="M512-64c-282.766 0-512 229.234-512 512s229.234 512 512 512 512-229.234 512-512-229.234-512-512-512zM512-12.8c254.492 0 460.8 206.308 460.8 460.8s-206.308 460.8-460.8 460.8-460.8-206.308-460.8-460.8 206.308-460.8 460.8-460.8zM574.834 551.196c55.012-14.62 100.921-40.22 136.277-76.146 54.414-55.324 81.067-132.551 79.474-228.978-0.217-12.703-9.973-23.060-22.401-24.227l-0.099-0.007-2.247-0.114c-11.887 0.003-21.813 8.396-24.178 19.579l-0.029 0.161c-2.278 8.91-5.158 16.643-8.742 23.969l0.322-0.73c-9.246 19.761-20.959 36.706-35.022 51.381l0.064-0.067c-43.236 45.511-109.71 71.68-193.621 75.947v-96.796c-0.014-13.657-11.088-24.723-24.747-24.723-5.45 0-10.488 1.762-14.577 4.747l0.070-0.049-256.142 185.685c-6.221 4.551-10.216 11.825-10.216 20.031 0 8.182 3.971 15.437 10.091 19.942l0.068 0.048 256.142 186.539c4.030 2.961 9.089 4.739 14.564 4.739 13.663 0 24.74-11.073 24.747-24.735v-104.506c21.703-1.479 45.511-5.12 70.201-11.691zM455.168 417.28c0 13.653 11.065 24.747 24.747 24.747 60.615 0 114.603-9.586 160.398-28.558 32.893-13.554 61.090-31.968 85.186-54.684l-0.137 0.128c-10.923 31.829-27.477 59.022-49.522 81.436-30.521 31.004-69.774 51.484-114.204 63.147-23.255 6.507-50.007 10.392-77.619 10.694l-0.177 0.002h-2.332l-0.711-0.028c-0.263-0.010-0.572-0.016-0.882-0.016-13.663 0-24.739 11.072-24.747 24.733v79.901l-189.326-137.87 189.326-137.244v73.614z" />
<glyph unicode="&#xe92b;" glyph-name="recovery" d="M511.708 914.97c63.159 0 123.979-12.281 181.875-36.843 55.557-23.392 105.266-57.311 148.541-100.002 42.691-42.691 76.61-92.985 100.002-148.541 24.562-57.311 36.843-118.716 36.843-181.875s-12.281-123.979-36.843-181.875c-23.392-55.557-57.311-105.266-100.002-148.541-42.691-42.691-92.985-76.61-148.541-100.002-57.311-24.562-118.716-36.843-181.875-36.843s-123.979 12.281-181.875 36.843c-55.557 23.392-105.266 57.311-148.541 100.002-42.691 42.691-76.61 92.985-100.002 148.541-24.562 57.311-36.843 118.716-36.843 181.875s12.866 124.564 37.428 181.875c23.392 55.557 57.311 105.266 100.002 148.541s92.985 76.61 148.541 100.002c57.311 24.562 118.716 36.843 181.291 36.843zM511.708 960c-282.463 0-511.708-229.245-511.708-511.708s229.245-511.708 511.708-511.708 511.708 229.245 511.708 511.708-228.66 511.708-511.708 511.708zM414.629 249.457c-9.357 0-18.714 2.339-27.486 7.603-16.959 9.942-27.486 27.486-27.486 47.37v287.726c0 19.883 9.942 37.428 27.486 47.37 16.959 9.942 37.428 9.942 54.387 0l249.128-143.863c16.959-9.942 27.486-27.486 27.486-47.37s-9.942-37.428-27.486-47.37l-249.128-143.863c-8.187-5.263-17.544-7.603-26.901-7.603zM418.723 585.138v-274.275l237.432 137.43-237.432 136.845z" />
<glyph unicode="&#xe92c;" glyph-name="accountEntry" d="M128 960h768c70.7 0 128-57.3 128-128v-768c0-70.7-57.3-128-128-128h-768c-70.7 0-128 57.3-128 128v768c0 70.7 57.3 128 128 128zM64 64c0-35.4 28.7-64 64-64h768c35.3 0 64 28.6 64 64v768c0 35.3-28.6 64-64 64h-768c-35.3 0-64-28.6-64-64v-768zM224 128h576c17.7 0 32-14.3 32-32s-14.3-32-32-32h-576c-17.7 0-32 14.3-32 32s14.3 32 32 32zM535.8 202.1c-6.7-6.7-15.5-9.6-24.3-9.1-8.7-0.5-17.6 2.4-24.3 9.1l-158.2 191.3c-12.6 12.6-12.6 33 0 45.6 12.5 12.6 32.9 12.6 45.4 0l105.6-127.7v488.7c0 17.7 14.3 32 32 32s32-14.3 32-32v-487.5l104.5 126.5c12.5 12.6 32.9 12.6 45.4 0s12.5-33 0-45.6l-158.1-191.3z" />
<glyph unicode="&#xe92d;" glyph-name="ToExamine" d="M511.555 883.991c-247.259 0-447.706-200.451-447.706-447.704s200.446-447.706 447.706-447.706c247.251 0 447.697 200.454 447.697 447.706s-200.446 447.704-447.697 447.704zM511.555 52.096c-211.859 0-384.191 172.36-384.191 384.191 0 211.857 172.348 384.189 384.191 384.189 211.832 0 384.188-172.352 384.188-384.189 0-211.856-172.333-384.191-384.188-384.191zM447.19 336.909l-127.573 98.92-63.445-64.128 214.102-192.625s126.775 288.473 298.232 421.847l-17.737 26.606c0.001-0.001-141.674-70.631-303.58-290.62z" />
<glyph unicode="&#xe92e;" glyph-name="stopFee" d="M509.233-57.080c-280.858 0-508.54 227.677-508.54 508.54 0 280.858 227.682 508.54 508.54 508.54 280.863 0 508.54-227.682 508.54-508.54 0.005-280.858-227.677-508.54-508.54-508.54zM509.038 898.23c-246.423 0-446.184-199.936-446.184-446.575 0-110.147 39.85-210.981 105.904-288.851l628.012 630.185c-77.685 65.664-178.093 105.241-287.731 105.241zM841.345 749.661l-629.193-631.371c78.872-70.411 182.886-113.204 296.886-113.204 246.428 0 446.189 199.936 446.189 446.57 0 114.519-43.076 218.964-113.882 298.006z" />
<glyph unicode="&#xe92f;" glyph-name="dictionary" d="M849.641 937.286h-674.164c-43.427 0-78.569-35.142-78.569-78.569v-821.527c0-43.427 35.142-78.569 78.569-78.569h674.257c43.427 0 78.569 35.142 78.569 78.522v821.574c-0.079 43.393-35.261 78.542-78.659 78.569h-0.003zM487.564 858.717v-229.004l-9.495 9.542-36.305 36.305c-4.848 4.83-11.536 7.816-18.921 7.816-7.339 0-13.989-2.949-18.83-7.726l0.003 0.003-48.407-47.849v230.912h131.956zM277.039 858.717v-302.499c0-21.504 17.315-38.819 38.819-38.819 25.414 0 49.85 10.007 67.956 27.927l38.726 38.4 38.074-38.074c17.361-17.361 40.681-27.508 65.257-28.253h1.489c0.028 0 0.060 0 0.093 0 21.413 0 38.772 17.359 38.772 38.772 0 0.016 0 0.033 0 0.049v-0.003 302.545h283.508v-681.1h-674.164v681.053h101.469zM175.476 37.19v61.905h674.164v-61.905h-674.164z" />
<glyph unicode="&#xe930;" glyph-name="WorkingGroup" d="M717.184 639.232c0.001-0.115 0.002-0.251 0.002-0.387 0-26.86-21.63-48.669-48.422-48.957h-313.627c-26.771 0.396-48.321 22.191-48.321 49.019 0 0.114 0 0.228 0.001 0.343v-0.018 175.744c0 27.136 21.696 49.344 48.32 49.344h313.6c26.688 0 48.448-22.208 48.448-49.344v-175.744zM836.992 378.368c-15.116 0.109-27.328 12.388-27.328 27.519 0 0.045 0 0.090 0 0.136v-0.007 19.392c-0.027 23.468-18.736 42.558-42.053 43.199l-0.059 0.001h-228.416v-53.76c0-0.039 0-0.085 0-0.131 0-15.064-12.103-27.301-27.116-27.517h-0.020c-15.026 0.18-27.137 12.403-27.137 27.454 0 0.091 0 0.181 0.001 0.272v-0.014 53.76h-228.224c-23.491-0.431-42.368-19.576-42.368-43.129 0-0.047 0-0.095 0-0.142v0.007-19.392c0-15.296-12.096-27.648-27.072-27.648s-27.136 12.288-27.136 27.648v19.392c0.128 54.4 43.392 98.56 96.512 98.688l510.848 0.064c53.12-0.128 96.384-44.48 96.384-98.688v-19.392c0.005-0.191 0.008-0.416 0.008-0.641 0-14.864-11.979-26.93-26.81-27.071h-0.013zM921.152 64.128h-151.808c-36.908 0.361-66.689 30.365-66.689 67.325 0 0.136 0 0.272 0.001 0.408v-0.021 155.52c0 37.312 29.952 67.648 66.688 67.648h151.808c36.672 0 66.56-30.336 66.56-67.648v-155.584c0.001-0.134 0.002-0.292 0.002-0.451 0-36.889-29.724-66.836-66.527-67.197h-0.034zM769.344 307.008c-10.112 0-18.688-9.024-18.688-19.648v-155.584c0-10.688 8.576-19.712 18.688-19.712h151.808c10.048 0 18.56 9.024 18.56 19.712v155.584c0 10.624-8.512 19.648-18.56 19.648h-151.808zM254.656 64.32h-151.616c-36.921 0.254-66.753 30.242-66.753 67.199 0 0.113 0 0.226 0.001 0.339v-0.017 155.52c0 37.312 29.952 67.648 66.752 67.648h151.616c36.893-0.289 66.69-30.264 66.69-67.198 0-0.158-0.001-0.316-0.002-0.474v0.024-155.584c0-0.077 0-0.167 0-0.258 0-36.934-29.796-66.908-66.661-67.198h-0.028zM103.040 307.008c-10.412-0.248-18.757-8.747-18.757-19.195 0-0.159 0.002-0.318 0.006-0.477v0.024-155.584c-0.002-0.097-0.003-0.211-0.003-0.325 0-10.447 8.344-18.946 18.732-19.194h151.639c10.112 0 18.688 8.96 18.688 19.52v155.584c0 10.624-8.576 19.648-18.688 19.648h-151.616zM594.432 64.32h-151.36c-36.948 0.217-66.817 30.22-66.817 67.199 0 0.113 0 0.226 0.001 0.339v-0.017 155.52c0 37.312 30.016 67.648 66.816 67.648h151.488c36.8 0 66.816-30.336 66.816-67.648v-155.584c0-37.184-30.016-67.456-66.944-67.456zM443.072 307.008c-10.44-0.212-18.821-8.726-18.821-19.196 0-0.159 0.002-0.317 0.006-0.475v0.023-155.584c-0.002-0.096-0.003-0.21-0.003-0.324 0-10.47 8.38-18.982 18.799-19.196h151.38c10.501 0.179 18.946 8.734 18.946 19.261 0 0.091-0.001 0.182-0.002 0.272v-0.014 155.584c0.003 0.116 0.004 0.252 0.004 0.389 0 10.483-8.373 19.010-18.797 19.258h-151.511z" />
<glyph unicode="&#xe931;" glyph-name="funcPoint" d="M512 561.493c-62.668-0.016-113.465-50.823-113.465-113.493 0-62.681 50.813-113.493 113.493-113.493 0.010 0 0.020 0 0.030 0h-0.002c62.684 0.016 113.493 50.835 113.493 113.522 0 62.696-50.825 113.522-113.522 113.522-0.010 0-0.020 0-0.030 0h0.002zM911.076 48.924h-228.238v-56.036h241.55c0.017 0 0.037 0 0.057 0 23.564 0 42.667 19.103 42.667 42.667v0 241.607h-56.036v-228.181zM924.388 903.111h-241.55v-56.036h228.238v-228.238h56.036v241.55c0 0.017 0 0.037 0 0.057 0 23.564-19.103 42.667-42.667 42.667v0zM112.924 277.163h-56.036v-241.55c0-23.609 19.115-42.724 42.667-42.724h241.607v56.092h-228.238v228.181zM56.889 860.388v-241.55h56.036v228.238h228.238v56.036h-241.55c-0.017 0-0.037 0-0.057 0-23.564 0-42.667-19.103-42.667-42.667v0z" />
<glyph unicode="&#xe932;" glyph-name="MainManagement" d="M511.684 895.979c-247.264 0-447.711-200.446-447.711-447.716s200.447-447.716 447.711-447.716c247.27 0 447.716 200.446 447.716 447.716s-200.446 447.716-447.716 447.716zM512.305 34.526c-228.186 0-413.167 184.982-413.167 413.167s184.981 413.164 413.167 413.164c228.185 0 413.162-184.979 413.162-413.164s-184.977-413.167-413.162-413.167zM775.172 424.189c-0.020 0-0.044 0-0.068 0-7.579 0-14.57 2.519-20.181 6.767l0.084-0.061 1.569-9.877h0.504v-200.001h-490.163v199.998h0.241l1.466 9.614c-5.46-4.024-12.32-6.441-19.745-6.441-0.019 0-0.037 0-0.056 0h0.003c-18.169 0.002-32.897 14.213-32.897 31.747v22.225l83.247 152.946 0.639 4.196h46.056l-64.149-157.142v-22.223c0-17.533 14.728-31.747 32.897-31.747s32.895 14.215 32.895 31.747v22.223l49.346 153.97v3.173h42.766l-26.316-157.143v-22.223c0-17.533 14.727-31.747 32.894-31.747 18.169 0 32.895 14.215 32.895 31.747v22.223l13.16 157.143h39.475l13.159-157.143v-22.223c0-17.533 14.727-31.747 32.898-31.747 18.168 0 32.896 14.215 32.896 31.747v22.223l-26.32 157.143h42.769v-3.173l49.342-153.97v-22.223c0-17.533 14.729-31.747 32.896-31.747s32.895 14.215 32.895 31.747v22.223l-64.149 157.143h44.413l85.533-157.143v-22.223c0.002-17.533-14.725-31.748-32.894-31.748zM725.825 636.891h-427.656c-9.084 0-16.449 7.107-16.449 15.874v6.348c0 8.768 7.364 15.874 16.449 15.874h427.656c9.085 0 16.449-7.105 16.449-15.874v-6.348c0-8.767-7.364-15.874-16.449-15.874z" />
<glyph unicode="&#xe933;" glyph-name="PageIcon" d="M829.227 581.547h-211.499v211.499h-450.773v-732.757h662.272v521.259zM660.395 762.88v-138.667h138.667l-138.667 138.667zM647.893 835.712l224-224v-594.091h-747.605v818.091h523.605zM321.835 581.547v42.667h141.013v-42.667h-141.013zM321.835 405.333v42.667h352.469v-42.667h-352.427zM321.835 229.12v42.667h352.469v-42.667h-352.427z" />
<glyph unicode="&#xe934;" glyph-name="dataEmpower" d="M895.488 830.464l-380.224 65.024c-1.895 0.337-4.077 0.53-6.304 0.53s-4.409-0.193-6.53-0.563l0.226 0.033-382.4-65.024c-15.786-2.195-27.885-15.351-28.415-31.435l-0.001-0.053v-416c0-65.6 22.4-126.912 66.56-182.208 34.24-43.008 81.664-82.304 140.8-116.736 98.944-57.6 196.672-81.92 200.832-82.944 5.888-1.472 12.16-1.472 18.048 0 75.947 21.284 142.238 49.889 203.582 85.999l-3.966-2.159c58.816 34.56 105.92 73.792 140.032 116.736 43.904 55.232 66.112 116.224 66.112 181.312v416c-0.526 16.118-12.593 29.264-28.178 31.468l-0.174 0.020zM854.528 382.976c0-93.696-58.112-175.552-172.736-243.328-49.627-29.264-106.976-54.513-167.359-72.776l-5.633-1.464c-55.552 15.744-347.648 108.608-347.648 317.568v389.376l347.776 59.136 345.6-59.136v-389.376zM360.64 501.504c-6.472 5.817-15.077 9.374-24.512 9.374s-18.040-3.557-24.546-9.404l0.034 0.030c-6.245-5.57-10.159-13.64-10.159-22.624s3.913-17.054 10.129-22.598l0.030-0.026 137.6-127.040c6.38-5.798 14.894-9.347 24.237-9.347 0.164 0 0.328 0.001 0.492 0.003h-0.025c8.96 0 17.92 3.072 24.704 9.344l224.576 199.296c6.245 5.57 10.159 13.64 10.159 22.624s-3.913 17.054-10.129 22.598l-0.030 0.026c-6.472 5.817-15.077 9.374-24.512 9.374s-18.040-3.557-24.546-9.404l0.034 0.030-199.744-177.28-113.792 105.024z" />
<glyph unicode="&#xe935;" glyph-name="resetPassword" d="M341.036 161.36v-96.358h-212.944v149.982c0 2.484 0.992 5.462 2.482 6.952 84.88 93.844 170.256 187.688 255.137 281.53 2.977 3.476 2.482 5.958 1.488 9.434-30.774 127.111 40.704 260.18 162.812 303.874 137 49.156 286.408-24.827 331.081-163.358 42.192-131.083-23.824-272.097-149.904-322.245-54.105-21.35-109.699-23.336-165.79-7.448-2.979 0.994-4.962 0-6.949-1.986-43.68-51.638-87.858-103.774-131.54-155.412-2.978-3.476-5.46-4.47-9.928-4.47h-70.485c-1.49-0.497-3.474-0.497-5.46-0.497zM303.325 219.987h97.581c3.316 0 5.683 0.949 8.054 3.793 44.054 52.596 87.633 104.719 131.687 157.313 2.369 2.846 3.79 2.846 7.106 1.422 45.002-20.377 91.423-24.639 139.267-10.423 99.476 28.902 159.636 127.937 141.635 231.235-20.369 116.565-136.899 190.958-251.061 159.21-79.106-21.796-137.372-90.977-145.897-174.847-3.317-31.748 0.947-62.548 11.843-92.401 0.947-2.369 0.473-4.265-0.948-6.159-6.157-6.633-12.317-13.74-18.948-20.376-77.212-84.816-154.424-170.109-231.164-254.929-1.421-1.418-2.369-4.264-2.369-6.157v-79.636h112.739v46.466c0.476 15.163 0.476 29.854 0.476 45.489zM636.875 476.655c-52.614 0-94.807 43.197-94.311 96.326 0 52.633 42.689 95.332 95.302 95.332 52.121 0 94.313-43.197 94.313-96.325 0.001-52.634-42.687-95.831-95.304-95.333zM590.217 572.483c0-26.315 21.343-48.163 47.649-48.163 25.814 0 47.157 21.847 47.157 47.666 0 26.316-20.849 47.666-47.157 47.666-26.306 0.499-47.649-20.853-47.649-47.17z" />
<glyph unicode="&#xe936;" glyph-name="APPEmpower" d="M512.051-12.8c-0.268-0.001-0.586-0.001-0.904-0.001-126.978 0-241.907 51.589-324.971 134.95l-0.014 0.014c-83.375 83.077-134.964 198.006-134.964 324.984 0 0.318 0 0.635 0.001 0.952v-0.049c0 62.208 12.186 122.522 36.198 179.354 24.398 56.945 57.742 105.551 98.798 146.415l0.018 0.017c40.94 40.978 89.527 74.306 143.44 97.662l2.992 1.154c52.63 22.854 113.931 36.148 178.337 36.148 0.357 0 0.715 0 1.072-0.001h-0.055c62.31 0 122.522-12.186 179.354-36.198 56.945-24.398 105.551-57.742 146.415-98.798l0.017-0.018c41.002-40.925 74.335-89.517 97.666-143.445l1.15-2.987c23.962-56.832 36.147-117.094 36.147-179.302 0.001-0.273 0.001-0.595 0.001-0.917 0-64.445-13.314-125.78-37.341-181.406l1.142 2.969c-24.398-56.945-57.742-105.551-98.798-146.415l-0.018-0.017c-40.927-40.983-89.519-74.299-143.444-97.615l-2.988-1.15c-52.729-22.95-114.154-36.301-178.698-36.301-0.213 0-0.425 0-0.638 0h0.034zM512.051 850.33c-221.798 0-402.278-180.48-402.278-402.278s180.48-402.278 402.278-402.278c221.798 0 402.278 180.48 402.278 402.278-0.102 221.798-180.48 402.278-402.278 402.278zM765.030 447.693l30.464-93.594c1.116-3.232 1.761-6.957 1.761-10.832 0-13.114-7.381-24.504-18.215-30.243l-0.186-0.090-87.45-44.698-44.595-87.603c-6.293-10.71-17.756-17.787-30.873-17.787-3.84 0-7.539 0.607-11.006 1.729l0.253-0.071-93.389 30.413-93.44-30.413c-3.215-1.107-6.919-1.746-10.773-1.746-13.111 0-24.494 7.4-30.2 18.251l-0.089 0.187-44.595 87.603-87.398 44.698c-11.069 5.744-18.501 17.119-18.501 30.229 0 3.915 0.663 7.675 1.882 11.174l-0.072-0.238 30.208 93.594-30.31 93.594c-1.116 3.232-1.761 6.957-1.761 10.832 0 13.114 7.381 24.504 18.215 30.243l0.186 0.090 87.45 44.698 45.158 87.040c5.749 11.053 17.115 18.472 30.214 18.472 3.883 0 7.613-0.652 11.087-1.852l-0.239 0.072 93.389-30.413 93.44 30.413c3.215 1.107 6.919 1.746 10.773 1.746 13.111 0 24.494-7.4 30.2-18.251l0.089-0.187 44.595-87.552 87.398-44.749c14.848-7.731 22.118-25.037 16.691-41.165l-30.362-93.594zM707.226 448.563l23.194 71.373c0.86 2.463 1.357 5.302 1.357 8.257 0 10.003-5.691 18.676-14.012 22.959l-0.145 0.068-66.867 34.099-34.15 66.765c-4.425 8.449-13.132 14.115-23.162 14.115-2.923 0-5.733-0.481-8.357-1.369l0.184 0.054-71.475-23.142-71.475 23.091c-2.481 0.871-5.341 1.375-8.319 1.375-10.018 0-18.706-5.698-22.999-14.030l-0.068-0.145-34.56-66.253-66.867-34.099c-8.451-4.397-14.123-13.088-14.123-23.103 0-2.926 0.484-5.739 1.377-8.363l-0.054 0.183 23.194-71.373-23.194-71.373c-0.869-2.475-1.371-5.329-1.371-8.301 0-10.008 5.698-18.686 14.026-22.966l0.145-0.068 66.867-34.048 34.099-66.765c4.423-8.457 13.134-14.129 23.169-14.129 2.939 0 5.764 0.487 8.4 1.383l-0.184-0.054 71.475 23.142 71.475-23.142c2.49-0.832 5.357-1.312 8.336-1.312 9.963 0 18.671 5.369 23.391 13.371l0.069 0.127 34.15 66.816 66.867 34.048c8.459 4.395 14.137 13.089 14.137 23.111 0 2.942-0.489 5.77-1.391 8.407l0.054-0.183-23.194 71.475zM655.104 486.093l-143.667-143.411-0.512-0.717-0.154-0.102c-5.452-5.385-12.949-8.711-21.222-8.711s-15.77 3.326-21.226 8.714l0.003-0.003-85.862 85.76c-5.391 5.431-8.723 12.912-8.723 21.171s3.332 15.741 8.724 21.173l-0.002-0.002 0.102 0.154c5.452 5.385 12.949 8.711 21.222 8.711s15.77-3.326 21.226-8.714l64.509-64.509 123.136 122.982c5.452 5.385 12.949 8.711 21.222 8.711s15.77-3.326 21.226-8.714l-0.003 0.003 0.102-0.154c11.674-11.622 11.674-30.72-0.102-42.342z" />
<glyph unicode="&#xe937;" glyph-name="PCEmpower" horiz-adv-x="1101" d="M941.011 959.566h-783.814c-86.58 0-156.769-70.189-156.769-156.763v-587.86c0-86.573 70.189-156.763 156.776-156.763h783.807c86.573 0 156.763 70.189 156.763 156.763v587.86c0 86.567-70.189 156.763-156.763 156.763zM1019.386 214.943c0-43.209-35.166-78.381-78.381-78.381h-783.807c-43.209 0-78.381 35.172-78.381 78.381v587.86c0 43.209 35.172 78.381 78.381 78.381h783.814c43.209 0 78.375-35.172 78.375-78.381v-587.86zM823.439 18.983h-548.676c-0.006 0-0.013 0-0.019 0-21.63 0-39.165-17.535-39.165-39.165 0-0.007 0-0.014 0-0.020v0.001c0-0.006 0-0.013 0-0.019 0-21.634 17.538-39.171 39.171-39.171 0.005 0 0.009 0 0.014 0h548.682c0.006 0 0.013 0 0.019 0 21.63 0 39.165 17.535 39.165 39.165 0 0.009 0 0.018 0 0.027v-0.001c0 0.006 0 0.013 0 0.019 0 21.63-17.535 39.165-39.165 39.165-0.009 0-0.018 0-0.027 0h0.001zM770.929 722.775l-215.396 78.874c-1.911 0.725-4.121 1.145-6.429 1.145s-4.518-0.42-6.557-1.188l0.128 0.042-215.396-78.874c-7.959-2.91-13.325-10.908-13.325-19.903v-243.453c6.053-142.867 219.084-230.4 228.106-234.068 2.236-0.907 4.627-1.374 7.045-1.38 2.372 0 4.744 0.454 7.045 1.38 9.022 3.675 222.046 91.201 228.106 235.027v242.494c0 8.996-5.373 16.993-13.325 19.903zM713.404 569.61l-166.296-166.257c-7.075-7.095-16.86-11.484-27.669-11.484-0.013 0-0.026 0-0.039 0h0.002c-0.011 0-0.024 0-0.037 0-10.81 0-20.594 4.39-27.668 11.483l-110.839 110.839c-7.097 7.089-11.487 16.887-11.487 27.71s4.39 20.621 11.487 27.709v0c7.090 7.092 16.886 11.478 27.706 11.478s20.616-4.387 27.706-11.478l83.132-83.126 138.583 138.583c7.089 7.093 16.885 11.481 27.706 11.481s20.617-4.388 27.706-11.481v0c7.096-7.098 11.486-16.902 11.486-27.732 0-10.827-4.387-20.629-11.479-27.726v0z" />
<glyph unicode="&#xe938;" glyph-name="element" horiz-adv-x="4182" d="M1492.38 958.954c-124.387-11.772-219.344-116.147-219.344-241.057s95.089-229.285 219.344-241.057h200.902c21.581 0 39.37 17.003 40.154 38.585v200.771c0.262 133.542-107.514 242.103-241.057 242.757zM1671.308 555.58h-160.617c-88.81 0-160.748 71.938-160.748 160.748s71.938 160.748 160.748 160.748 160.748-71.938 160.748-160.748v-160.748zM1693.282 421.645h-200.902c-98.097 0.392-186.776-58.466-224.576-148.976-37.8-90.641-17.134-195.016 52.318-264.338 69.453-69.453 173.828-89.987 264.338-52.318 90.641 37.8 149.369 126.479 148.976 224.576v200.771c0 22.235-18.050 40.285-40.154 40.285zM1652.997 180.457c0-88.81-71.938-160.748-160.748-160.748s-160.748 71.938-160.748 160.748 71.938 160.748 160.748 160.748h160.748v-160.748zM1827.217 475.14h200.902c98.097-0.392 186.776 58.466 224.576 148.976 37.8 90.641 17.134 195.016-52.318 264.338-69.453 69.453-173.828 89.987-264.338 52.318-90.641-37.8-149.369-126.479-148.976-224.576v-200.902c-0.131-22.104 17.919-40.154 40.154-40.154zM1867.371 716.197c0 88.81 71.938 160.748 160.748 160.748s160.748-71.938 160.748-160.748-71.938-160.748-160.748-160.748h-160.748v160.748zM2028.119 421.645h-200.902c-22.235 0-40.154-18.050-40.154-40.154v-200.902c-0.392-98.097 58.466-186.776 148.976-224.576 90.641-37.8 195.016-17.134 264.338 52.318 69.453 69.453 89.987 173.828 52.318 264.338-37.8 90.511-126.479 149.369-224.576 148.976zM2028.119 19.84c-42.639 0-83.448 16.873-113.662 47.086-30.083 30.083-47.086 71.022-47.086 113.662v160.617h160.748c88.81 0 160.748-71.938 160.748-160.748-0.131-88.68-72.068-160.617-160.748-160.617z" />
<glyph unicode="&#xe939;" glyph-name="searchFee" d="M948.795 50.904l-270.052 271.715c50.346 60.285 80.656 137.879 80.656 222.558 0 191.883-155.57 347.45-347.465 347.45-191.892 0-347.463-155.567-347.463-347.45 0-191.885 155.57-347.45 347.463-347.45 87.198 0 166.892 32.128 227.901 85.184l269.652-271.312c10.857-10.859 28.448-10.859 39.307 0 10.86 10.829 10.86 28.447 0.001 39.305zM411.935 252.859c-161.461 0-292.332 130.891-292.332 292.32 0 161.453 130.871 292.319 292.332 292.319 161.435 0 292.331-130.864 292.331-292.319 0-161.429-130.894-292.32-292.331-292.32z" />
<glyph unicode="&#xe93a;" glyph-name="openFee" d="M904.5 139.2l-82.4 68c-1.4 1.2-3.2 1.8-5.1 1.8-4.4 0-8-3.6-8-8v-45.9h-268.9l-209.4 293 209.4 292.9h268.9v-46c0-1.9 0.6-3.7 1.8-5.1 2.8-3.4 7.9-3.9 11.3-1.1l82.4 68c0.4 0.3 0.8 0.7 1.1 1.1 2.8 3.4 2.3 8.4-1.1 11.3l-82.4 68c-1.4 1.2-3.2 1.8-5.1 1.8-4.4 0-8-3.6-8-8v-26h-301.8l-232.2-324.9h-155c-4.4 0-8-3.6-8-8v-48.1c0-4.4 3.6-8 8-8h155l232.2-324.9h301.8v-26.1c0-1.9 0.6-3.7 1.8-5.1 2.8-3.4 7.9-3.9 11.3-1.1l82.4 68c0.4 0.3 0.8 0.7 1.1 1.1 2.8 3.4 2.3 8.5-1.1 11.3z" />
<glyph unicode="&#xe93b;" glyph-name="addFee" d="M512 917.439c258.83 0 469.439-210.609 469.439-469.439 0-258.793-210.609-469.402-469.439-469.402s-469.439 210.609-469.439 469.402c0 258.83 210.609 469.439 469.439 469.439zM512-63.963c282.289 0 512 229.674 512 511.963 0 282.326-229.711 512-512 512s-512-229.674-512-512c0-282.289 229.711-511.963 512-511.963zM239.467 434.409h242.129v-242.129c0.491-11.374 9.83-20.409 21.281-20.409s20.79 9.035 21.279 20.365l0.002 0.044v242.129h242.167c11.489 0.35 20.67 9.748 20.67 21.29s-9.18 20.939-20.637 21.289l-0.032 0.001h-242.167v242.167c-0.491 11.374-9.83 20.409-21.281 20.409s-20.79-9.035-21.279-20.365l-0.002-0.044v-242.167h-242.129c-11.489-0.35-20.67-9.748-20.67-21.29s9.18-20.939 20.637-21.289l0.032-0.001z" />
<glyph unicode="&#xe93c;" glyph-name="receivables" horiz-adv-x="1092" d="M1071.787 454.827c-13.653 13.653-34.133 20.48-54.613 27.307h-102.4v375.467c0 68.267-34.133 102.4-102.4 102.4h-532.48c-34.133 0-54.613-6.827-75.093-27.307-13.653-13.653-20.48-40.96-20.48-75.093v-375.467h-122.88c-34.133-13.653-61.44-47.787-61.44-81.92 0-20.48 6.827-40.96 20.48-54.613l416.427-368.64c34.133-27.307 68.267-40.96 109.227-40.96s75.093 13.653 109.227 40.96l416.427 368.64c13.653 13.653 20.48 34.133 20.48 54.613s-6.827 40.96-20.48 54.613zM628.053 17.92c-27.307-13.653-47.787-27.307-81.92-27.307-20.48 0-47.787 0-81.92 27.307l-402.773 354.987c0 6.827-6.827 13.653-6.827 27.307s13.653 27.307 27.307 34.133h150.187v409.6c0 20.48 6.827 34.133 13.653 47.787 13.653 6.827 27.307 13.653 47.787 13.653h505.173c20.48 0 34.133-6.827 47.787-13.653 6.827-6.827 13.653-20.48 13.653-47.787v-409.6h143.36c20.48 0 40.96-20.48 40.96-40.96 0-6.827 0-13.653-6.827-20.48l-409.6-354.987zM566.613 393.387v75.093h157.013c13.653 0 20.48 13.653 20.48 20.48 0 13.653-6.827 20.48-20.48 20.48h-150.187l129.707 157.013c0 6.827 6.827 6.827 6.827 13.653s0 6.827-6.827 13.653-20.48 6.827-27.307 0l-129.707-150.187-129.707 150.187c-6.827 13.653-20.48 13.653-27.307 6.827s-6.827-20.48 0-27.307l129.707-157.013h-150.187c-13.653 0-20.48-13.653-20.48-20.48 0-13.653 6.827-20.48 20.48-20.48h157.013v-75.093h-157.013c-13.653 0-20.48-13.653-20.48-20.48 0-20.48 13.653-34.133 20.48-34.133h157.013v-102.4c0-13.653 13.653-20.48 20.48-20.48 13.653 0 20.48 6.827 20.48 20.48v102.4h157.013c13.653 0 20.48 13.653 20.48 20.48 0 13.653-6.827 20.48-20.48 20.48h-157.013z" />
<glyph unicode="&#xe93d;" glyph-name="collectionRecords" horiz-adv-x="1040" d="M132.389 960h878.202c14.71-8.371 23.081-23.081 20.561-40.229 0-312.076 0.081-624.315 0-936.472 2.357-18.53-9.509-40.716-30.801-37.953-282.006-2.763-564.175-0.325-846.182-1.382-16.985-2.682-38.278 5.608-39.497 24.869-1.382 63.147 0.163 126.293-0.406 189.44-31.695 0.406-63.553-2.844-95.086 0.731-18.53 11.622-17.554 40.96-1.95 54.776 32.183 3.982 64.691 1.057 96.955 1.707 0.406 69.079-0.813 138.077-0.406 207.076-31.939 0.65-63.959-1.95-95.817 1.3-16.742 12.922-16.498 41.204-0.406 54.613 31.939 3.413 64.122 0.813 96.223 1.788 0 78.1 0.081 156.282-0.081 234.382-32.752-0.325-65.585 0.244-98.418 0-9.346 17.392-15.279 41.448 2.438 55.914 31.939 3.17 64.041 0.813 96.061 2.032 0.488 51.769-0.731 103.619 0.244 155.388-2.194 14.141 9.509 23.162 18.367 32.020zM167.010 894.578c-1.3-41.123-1.3-82.326 0.406-123.449 30.557 0.65 61.196 2.276 91.835 0.65 20.968-9.427 20.886-45.917 0.731-56.32-31.208-2.276-62.497-0.163-93.623-0.975v-234.545c31.451-0.325 62.984 2.032 94.354-0.244 19.098-11.865 18.855-43.561 0.325-55.832-31.289-1.869-62.74-0.488-94.192-1.463-0.081-68.917 0.081-137.834-0.081-206.75 31.126-0.731 62.334 1.3 93.46-0.894 19.098-10.321 19.342-41.448 2.844-54.613-31.695-4.957-64.203-0.569-96.223-2.032-0.081-53.963 0.081-107.926 0-161.89 270.547 0 541.176-0.569 811.804 0.488-0.081 303.543-0.081 607.167 0 910.71-261.283 0.244-522.565-0.163-783.848 0.163-9.915-0.163-27.876 1.382-27.794-13.003zM455.030 682.22c11.947 17.067 40.066 10.24 47.38-7.802 32.752-59.652 67.291-118.329 96.955-179.606 24.95 42.179 44.211 87.69 69.648 129.707 12.759 19.586 19.586 44.536 38.278 59.408 22.999 13.735 52.907-15.766 37.384-38.441-29.582-54.37-61.196-107.683-91.347-161.727 31.37-0.813 62.903 1.788 94.192-1.382 23.487-5.851 21.13-44.455-3.332-46.161-38.766-2.032-77.613 0-116.378-0.569-0.163-27.144-0.244-54.288-0.081-81.432 39.822-0.731 79.726 1.707 119.467-0.975 23.65-5.933 21.618-44.373-2.763-46.893-38.847-2.357-77.857 0-116.866-0.894-1.382-30.964 3.657-62.578-3.007-92.973-9.346-22.349-45.511-20.886-52.582 2.438-4.876 29.907-0.975 60.465-2.113 90.535-40.797 0.813-81.595-1.3-122.23 0.813-24.95 2.682-25.519 43.886-0.244 47.055 40.96 2.926 82.164-0.813 123.205 1.788-1.057 26.819-0.813 53.638-0.731 80.376-40.797 0.731-81.595-1.3-122.311 0.813-24.462 2.519-25.356 42.667-0.731 46.161 32.020 2.194 64.122 0.081 96.142 0.813-27.55 52.175-55.182 104.269-82.895 156.363-6.583 12.759-14.303 29.095-5.039 42.585z" />
<glyph unicode="&#xe93e;" glyph-name="transferFee" d="M512-64c-282.768 0-512 229.232-512 512s229.232 512 512 512 512-229.232 512-512-229.232-512-512-512zM512 931.155c-266.846 0-483.155-216.309-483.155-483.141 0-266.846 216.309-483.155 483.155-483.155 266.831 0 483.155 216.309 483.155 483.155 0 266.831-216.324 483.141-483.155 483.141zM775.759 383.445h-471.444l86.593-86.29c3.14-3.12 5.083-7.441 5.083-12.216 0-9.511-7.71-17.221-17.221-17.221-0.028 0-0.055 0-0.083 0h0.004c-4.413 0-8.827 1.716-12.216 5.062l-116.087 115.741c-3.139 3.105-5.083 7.412-5.083 12.174 0 2.378 0.485 4.643 1.361 6.702l-0.042-0.112c2.672 6.318 8.818 10.671 15.98 10.673h513.212c9.519 0 17.278-7.73 17.278-17.235 0-9.548-7.759-17.221-17.336-17.278zM775.817 463.764h-513.211c-9.519 0-17.278 7.73-17.278 17.235 0.016 9.546 7.759 17.278 17.307 17.278 0.010 0 0.020 0 0.030 0h471.442l-86.593 86.29c-3.114 3.121-5.040 7.429-5.040 12.187 0 9.53 7.726 17.255 17.255 17.255 4.772 0 9.092-1.937 12.216-5.068v0l116.087-115.741c4.947-4.904 6.461-12.317 3.764-18.764-2.672-6.318-8.818-10.671-15.98-10.673v0z" />
<glyph unicode="&#xe93f;" glyph-name="workOrder" d="M746.496 177.664c123.904-2.048 228.864-93.184 264.192-222.208 2.56-9.728-4.608-19.456-14.848-19.456h-28.16c-6.656 0-12.8 4.096-14.848 10.752-30.208 100.864-111.616 173.056-206.848 173.056s-176.64-72.192-206.848-173.056c-2.048-6.656-7.68-10.752-14.848-10.752 0 0-13.824 0-26.112 0.512-10.24 0.512-16.896 10.752-13.312 20.48 21.504 55.808 96.256 223.232 261.632 220.672zM580.096 333.824c-6.144 100.864 76.8 183.808 177.664 177.664 83.456-5.12 150.528-72.704 156.16-156.16 6.144-100.864-76.8-183.808-177.664-177.664-83.456 5.12-151.040 72.704-156.16 156.16zM637.44 344.576c0-64.512 55.808-116.224 121.856-109.056 50.176 5.632 90.624 46.080 96.256 96.256 7.168 66.048-44.544 121.856-109.056 121.856-59.904 0.512-109.056-48.64-109.056-109.056zM81.408-6.144h267.776c8.704 0 15.36-6.656 15.36-15.36v-27.136c0-8.704-6.656-15.36-15.36-15.36h-279.040c-33.792 0-61.44 27.648-61.44 61.44v822.272c0 33.792 27.648 61.44 61.44 61.44h186.368v17.408c0 33.792 27.648 61.44 61.44 61.44h291.84c33.792 0 61.44-27.648 61.44-61.44v-16.896h186.368c33.792 0 61.44-27.648 61.44-61.44v-240.64c0-8.704-6.656-15.36-15.36-15.36h-27.136c-8.704 0-15.36 6.656-15.36 15.36v228.864c0 8.704-6.656 15.36-15.36 15.36h-175.104v-9.728c0-33.792-27.648-61.44-61.44-61.44h-291.328c-33.792 0-61.44 27.648-61.44 61.44v9.728h-175.104c-8.704 0-15.36-6.656-15.36-15.36v-799.232c0-8.704 7.168-15.36 15.36-15.36zM330.752 809.984h267.264c8.704 0 15.872 7.168 15.872 15.872v59.904c0 9.216-7.168 16.384-16.384 16.384h-267.264c-9.216 0-16.384-7.168-16.384-16.384v-59.392c0-8.704 7.68-16.384 16.896-16.384zM220.16 374.272h263.168c8.704 0 15.36 6.656 15.36 15.36v27.136c0 8.704-6.656 15.36-15.36 15.36h-263.168c-8.704 0-15.36-6.656-15.36-15.36v-27.136c0-8.192 6.656-15.36 15.36-15.36zM220.16 548.352h487.936c8.704 0 15.36 6.656 15.36 15.36v27.136c0 8.704-6.656 15.36-15.36 15.36h-487.936c-8.704 0-15.36-6.656-15.36-15.36v-27.136c0-8.704 6.656-15.36 15.36-15.36z" />
<glyph unicode="&#xe940;" glyph-name="plan" d="M739.328 801.28h35.072c91.9 0 166.4-74.5 166.4-166.4v0-512c0-91.9-74.5-166.4-166.4-166.4v0h-512c-91.9 0-166.4 74.5-166.4 166.4v0 512c0 91.9 74.5 166.4 166.4 166.4v0h44.928c14.396 32.332 45.253 54.964 81.636 57.329l0.284 0.015c-2.496 26.24 2.304 44.544 18.048 57.152 30.976 24.832 201.088 24.832 232.064 0 15.744-12.608 20.48-30.848 18.112-57.152 36.68-2.392 67.541-25.050 81.677-56.797l0.243-0.611zM307.328 724.48h-44.928c-49.485 0-89.6-40.115-89.6-89.6v0-512c0-49.485 40.115-89.6 89.6-89.6v0h512c49.485 0 89.6 40.115 89.6 89.6v0 512c0 49.485-40.115 89.6-89.6 89.6h-35.072c-15.195-34.19-48.856-57.6-87.985-57.6-0.005 0-0.010 0-0.015 0h-255.999c-0.004 0-0.009 0-0.015 0-39.129 0-72.791 23.41-87.743 56.989l-0.243 0.611zM458.432 834.176c0.545-2.211 0.858-4.749 0.858-7.36 0-17.66-14.305-31.978-31.96-32h-32.002c-17.673 0-32-14.327-32-32s14.327-32 32-32v0h256c17.673 0 32 14.327 32 32s-14.327 32-32 32v0h-32c-0.008 0-0.017 0-0.026 0-17.673 0-32 14.327-32 32 0 2.611 0.313 5.149 0.903 7.579l-0.045-0.219c2.631 9.652 4.584 21.003 5.466 32.654l0.038 0.626c-24.384 3.904-116.288 3.904-140.672 0 0.32-7.744 2.112-19.008 5.44-33.28zM587.328 503.68c-19.44 0-35.2 15.76-35.2 35.2s15.76 35.2 35.2 35.2h153.6c19.44 0 35.2-15.76 35.2-35.2s-15.76-35.2-35.2-35.2h-153.6zM587.328 311.68c-19.44 0-35.2 15.76-35.2 35.2s15.76 35.2 35.2 35.2h153.6c19.44 0 35.2-15.76 35.2-35.2s-15.76-35.2-35.2-35.2h-153.6zM297.088 534.4l46.080-49.216 99.008 107.392c5.878 6.477 14.329 10.528 23.727 10.528 17.673 0 32-14.327 32-32 0-8.49-3.307-16.208-8.702-21.937l0.015 0.016-122.368-132.736c-5.867-6.36-14.242-10.329-23.545-10.329-9.211 0-17.512 3.891-23.351 10.12l-0.016 0.017-69.568 74.432c-5.027 5.627-8.1 13.094-8.1 21.278 0 17.673 14.327 32 32 32 8.933 0 17.010-3.66 22.815-9.562l0.004-0.004zM587.328 119.68c-19.44 0-35.2 15.76-35.2 35.2s15.76 35.2 35.2 35.2h153.6c19.44 0 35.2-15.76 35.2-35.2s-15.76-35.2-35.2-35.2h-153.6zM305.728 346.88h102.4c35.346 0 64-28.654 64-64v0-102.4c0-35.346-28.654-64-64-64v0h-102.4c-35.346 0-64 28.654-64 64v0 102.4c0 35.346 28.654 64 64 64v0zM305.728 282.88v-102.4h102.4v102.4h-102.4z" />
<glyph unicode="&#xe941;" glyph-name="agentShops" d="M953.1 537.1l-24 59-76.8 168.1c-15.4 37.7-52.1 62.4-92.9 62.4h-494.3c-40.7 0-77.4-24.6-92.9-62.4l-76.8-168.1s-14.3-35.1-24.3-59.7c-7.9-19.3-9.8-41.1-2.5-60.6 14.7-39.1 50.5-67.5 93.4-72.1v-201.8c0-73 56.9-132.4 126.9-132.4h447.6c70 0 126.9 59.4 126.9 132.4v201.8c39.3 4.5 72.5 29.1 88.8 63.4 10.4 21.9 10.1 47.5 0.9 70zM736.5 152.8h-34.4c1 3.1 2 6.3 2 9.7v162.1c0 18.4-14.9 33.3-33.3 33.3h-56.1c-18.4 0-33.3-14.9-33.3-33.3v-162.1c0-3.4 1-6.6 2-9.7h-294.5c-24 0-43.5 22-43.5 49.1v227c24.4 20.2 40.5 50 41.3 84h0.3c1.4-61 51.2-110.1 112.6-110.1s111.2 49 112.6 110.1h0.3c1.4-61 51.2-110.1 112.6-110.1s111.2 49 112.6 110.1h0.3c0.8-34.4 17.3-64.5 42.2-84.7v-226.2c-0.2-27.2-19.7-49.2-43.7-49.2z" />
<glyph unicode="&#xe942;" glyph-name="custInspect" horiz-adv-x="1280" d="M814.763 297.6c18.475-9.301 42.709-21.803 69.248-35.797-21.982-33.143-35.072-73.843-35.072-117.6 0-0.071 0-0.142 0-0.213v0.011c0-97.152 64.64-179.541 154.112-208h-919.68c-57.685 0-97.963 55.467-78.379 108.8 14.165 38.4 30.507 75.733 46.805 92.8 30.507 32 202.453 121.6 278.613 160 5.426 2.683 11.813 4.252 18.567 4.252 15.703 0 29.425-8.484 36.833-21.118l0.109-0.201 87.083-157.867c11.947-22.4 46.805-17.067 50.048 8.533-0.028 5.781-1.217 11.276-3.347 16.275l0.104-0.275-19.627 36.267c-5.419 9.6-3.243 20.267 3.285 28.8l37.035 42.667c2.133 2.133 3.243 4.267 5.419 5.333 7.248 5.673 16.494 9.097 26.54 9.097 12.798 0 24.298-5.557 32.219-14.389l0.036-0.041 36.992-42.667c6.528-7.467 8.704-19.2 3.243-28.8l-19.584-36.267c-2.269-3.364-3.622-7.509-3.622-11.97 0-1.425 0.138-2.818 0.402-4.166l-0.022 0.136c3.243-24.533 38.101-30.933 50.048-8.533l87.040 157.867c7.017 13.113 20.62 21.882 36.272 21.882 7.057 0 13.698-1.783 19.497-4.923l-0.217 0.107zM1064.107 320c100.821 0 182.571-80.64 182.571-180.181 0-34.944-10.069-67.584-27.52-95.147l51.029-49.067c6.041-5.762 9.798-13.874 9.798-22.863 0-8.738-3.549-16.647-9.285-22.363l-0.001-0.001c-5.991-5.948-14.244-9.624-23.356-9.624-7.174 0-13.816 2.279-19.241 6.152l0.101-0.068-3.712 3.072-49.067 47.061c-30.42-23.299-69.007-37.334-110.871-37.334-0.157 0-0.313 0-0.47 0.001h0.024c-100.821 0-182.528 80.64-182.528 180.181 0 99.499 81.707 180.181 182.528 180.181zM1064.107 257.152c-0.111 0-0.241 0.001-0.372 0.001-32.8 0-62.529-13.143-84.211-34.45l0.017 0.017c-21.601-21.023-35.002-50.378-35.002-82.863 0-24.389 7.554-47.013 20.449-65.661l-0.252 0.385c22.153-31.66 58.448-52.108 99.519-52.108 16.532 0 32.289 3.313 46.646 9.311l-0.8-0.296c52.779 21.419 82.688 76.373 71.509 131.285s-60.373 94.421-117.461 94.379zM1094.4 223.104l48.725-48.043c8.96-8.832 8.96-23.168 0.085-32.085-4.191-4.075-9.919-6.589-16.235-6.589s-12.044 2.513-16.24 6.594l0.005-0.005-48.811 48.043c-4.134 4.093-6.694 9.769-6.694 16.043s2.56 11.95 6.692 16.041l0.002 0.002c4.193 4.088 9.93 6.609 16.256 6.609s12.063-2.521 16.261-6.614l-0.005 0.005zM575.36 960c180.651 0 285.141-80 285.141-284.8 0-203.733-162.133-364.8-285.141-364.8-124.075 0-290.56 162.133-290.56 364.8 0 206.933 108.8 284.8 290.56 284.8z" />
<glyph unicode="&#xe943;" glyph-name="QualityVerify" horiz-adv-x="1025" d="M299.772 789.333l-231.492-230.434 444.075-483.055 444.553 483.567-220.945 229.922h-436.224zM299.772 857.6h436.224c19.315-0.009 36.752-8.037 49.165-20.936l0.021-0.022 220.945-229.922c11.788-12.25 19.049-28.931 19.049-47.307 0-17.851-6.851-34.101-18.068-46.265l0.043 0.047-444.553-483.533c-12.518-13.587-30.399-22.070-50.261-22.070-17.842 0-34.085 6.845-46.247 18.051l0.048-0.043c-2.048 1.98-2.048 1.98-4.062 4.096l-444.075 482.953c-11.158 12.113-18 28.353-18 46.191 0 18.912 7.69 36.027 20.113 48.39l0.003 0.003 231.492 230.434c12.329 12.298 29.337 19.91 48.123 19.934h0.005zM377.63 643.584l69.53-248.013c8.309-29.001 34.588-49.869 65.741-49.869s57.432 20.867 65.622 49.387l0.118 0.482 69.53 248.013-65.741 18.432-69.53-248.013-69.53 248.013-65.741-18.432z" />
<glyph unicode="&#xe944;" glyph-name="allElection" d="M511.1 2.060c-246.456 0-446.857 200.401-446.857 446.859s200.401 446.858 446.857 446.858c246.457 0 446.858-200.401 446.858-446.858s-200.401-446.859-446.858-446.859zM511.1 853.456c-222.806 0-404.537-181.73-404.537-404.537s181.732-404.538 404.537-404.538c222.807 0 404.537 181.73 404.537 404.537s-181.107 404.538-404.537 404.538zM678.517 591.439l-230.898-232.764-103.934 104.558c-9.335 9.335-24.895 9.335-34.853 0-9.335-9.335-9.335-24.895 0-34.853l121.984-121.983c9.336-9.336 24.895-9.336 34.853 0 1.244 1.244 1.866 2.489 3.112 3.733l245.211 246.457c9.336 9.335 9.336 24.895 0 34.852-9.959 9.959-25.518 9.959-35.475 0z" />
<glyph unicode="&#xe945;" glyph-name="merchantPatrol" d="M516.9 507.1c62.1 0 112.7 48.9 112.7 109.1s-50.6 109.2-112.7 109.2-112.7-48.9-112.7-109.1 50.6-109.2 112.7-109.2zM516.9 671.8c31.3 0 56.6-25.1 56.6-56.2 0-31-25.3-56.2-56.6-56.2-31.2 0-56.6 25.2-56.6 56.2 0 31.1 25.4 56.2 56.6 56.2zM407.8 342c1.6-2.3 3.2-4.2 4.5-5.5 38-46 76.4-76.7 78-78l26.7-21.2 26.6 21.4c1.7 1.3 39.9 32.3 77.8 78.2 1.3 1.4 3 3.3 4.6 5.7 54.3 70.7 121.8 173.1 137 261.7 2.9 20.2 3 32.4 3 33.8 0.5 66.2-25.9 128.5-74.4 175.1-46.9 45.1-109 70-174.8 70-65.5 0-127.5-24.8-174.4-70-48.7-46.8-75.3-109.4-74.8-176.1 0-1.1 0.1-13.3 2.9-32.6 16.5-94.9 92.7-204.6 137.3-262.5zM516.9 814.1c102.7 0 186.8-82.1 186.1-184.1 0 0 0-9.2-2.2-24.5-12.3-71.4-70.3-159.9-116.9-220.3-0.4-0.7-1.1-1.4-1.5-1.8-32.4-39.4-65.5-66.1-65.5-66.1s-33.1 26.3-65.5 65.7c-0.4 0.4-1.1 1.1-1.5 1.8-46.5 60.1-104.6 148.9-116.8 220-2.2 15.3-2.2 24.5-2.2 24.5-0.8 102 83.3 184.8 186 184.8zM248.1 14h615.2c52.9 0 96.8 40.2 96.8 91s-43.9 91-96.8 91h-703c-19.9 0-35.1 13.9-35.1 29.8s15.2 29.8 35.1 29.8h109.9c8.2 0 16 3.2 21.8 8.9s9.1 13.5 9.1 21.7-3.3 16-9.1 21.7c-5.8 5.7-13.6 8.9-21.8 8.9h-109.9c-52.9 0-96.8-40.2-96.8-91s43.9-91 96.8-91h703.1c19.9 0 35.1-13.9 35.1-29.8s-15.2-29.8-35.1-29.8h-615.3c-17 0.1-30.8-13.7-30.9-30.6 0.2-16.9 14-30.6 30.9-30.6z" />
<glyph unicode="&#xe946;" glyph-name="businessPlan" d="M736 864h-448c-88 0-160-72-160-160v-512c0-88 72-160 160-160h448c88 0 160 72 160 160v512c0 88-72 160-160 160zM660.8 800v-224l-51.2 48c-9.6 9.6-20.8 12.8-33.6 12.8s-24-4.8-33.6-14.4l-46.4-44.8v222.4h164.8zM192 192v512c0 52.8 43.2 96 96 96v-704c-52.8 0-96 43.2-96 96zM832 192c0-52.8-43.2-96-96-96h-384v704h80v-260.8c0-27.2 20.8-48 48-48 12.8 0 25.6 4.8 33.6 14.4l62.4 62.4 67.2-64c9.6-8 20.8-12.8 33.6-12.8h1.6c12.8 0 24 4.8 33.6 14.4 8 9.6 12.8 20.8 12.8 33.6v260.8h11.2c52.8 0 96-43.2 96-96v-512z" />
<glyph unicode="&#xe947;" glyph-name="element2" d="M238.933 413.867h204.8v204.8h-204.8v-204.8zM238.933 345.6v-204.8h204.8v204.8h-204.8zM512 413.867h202.513c37.786 0 70.554-27.341 70.554-64.478v-212.378c0-37.171-32.802-64.478-70.554-64.478h-509.713c-18.851 0-34.133 15.282-34.133 34.133v546.133c0 18.851 15.282 34.133 34.133 34.133v0h273.067c18.851 0 34.133-15.282 34.133-34.133v0-238.933zM512 345.6v-204.8h202.513c1.946 0 2.253-0.102 2.287-1.843v208.486c-0.034-1.707-0.341-1.843-2.287-1.843h-202.513zM648.533 721.067v-170.667h170.667v170.667h-170.667zM614.4 789.333h238.933c18.851 0 34.133-15.282 34.133-34.133v0-238.933c0-18.851-15.282-34.133-34.133-34.133h-238.933c-18.851 0-34.133 15.282-34.133 34.133v238.933c0 18.851 15.282 34.133 34.133 34.133v0z" />
<glyph unicode="&#xe948;" glyph-name="PageIcon2" d="M207.644 960c-68.267 0-122.311-54.044-122.311-119.467v-785.067c0-65.422 54.044-119.467 122.311-119.467h611.556c65.422 0 122.311 54.044 122.311 119.467v662.756l-247.467 241.778h-486.4zM785.067 7.111h-548.978c-45.511 0-73.956 25.6-73.956 71.111v736.711c0 45.511 28.444 68.267 73.956 68.267h432.356v-130.844c0-25.6 22.756-48.356 48.356-48.356h150.756v-625.778c2.844-45.511-34.133-71.111-82.489-71.111zM665.6 265.956h-307.2c-17.067 0-31.289 14.222-31.289 31.289s14.222 31.289 31.289 31.289h304.356c17.067 0 31.289-14.222 31.289-31.289s-11.378-31.289-28.444-31.289zM665.6 385.422h-307.2c-17.067 0-31.289 14.222-31.289 31.289s14.222 31.289 31.289 31.289h304.356c17.067 0 31.289-14.222 31.289-31.289s-11.378-31.289-28.444-31.289zM665.6 507.733h-307.2c-17.067 0-31.289 14.222-31.289 31.289s14.222 31.289 31.289 31.289h304.356c17.067 0 31.289-14.222 31.289-31.289s-11.378-31.289-28.444-31.289z" />
<glyph unicode="&#xe949;" glyph-name="businessWarning" horiz-adv-x="1091" d="M1059.51 367.071h-136.258v24.279c0 13.708-0.661 27.086-1.982 40.299h138.405c17.357-0.617 31.193-14.836 31.193-32.286 0-17.509-13.929-31.764-31.31-32.291l-0.048-0.001zM834.56 639.257c-13.945 16.731-28.642 31.743-44.451 45.512l-0.473 0.403 100.748 103.556c5.654 5.885 13.59 9.541 22.379 9.541s16.725-3.656 22.369-9.531l0.010-0.010c5.749-5.963 9.291-14.088 9.291-23.040s-3.542-17.077-9.3-23.050l0.010 0.010zM860.325 0.743h73.332c17.437-0.575 31.354-14.848 31.354-32.372s-13.917-31.797-31.301-32.37l-0.053-0.001h-775.432c-17.437 0.575-31.354 14.848-31.354 32.372s13.917 31.797 31.301 32.37l0.053 0.001h73.332v387.964c-0.074 2.54-0.116 5.529-0.116 8.528 0 173.739 140.843 314.583 314.583 314.583s314.583-140.843 314.583-314.583c0-2.999-0.042-5.988-0.125-8.966l0.010 0.438zM797.564 367.071c0.063 2.104 0.099 4.578 0.099 7.061 0 138.977-112.663 251.64-251.64 251.64s-251.64-112.663-251.64-251.64c0-2.483 0.036-4.958 0.107-7.423l-0.008 0.362v-366.328h503.081v366.328zM551.474 504.815c5.659 5.809 13.557 9.412 22.297 9.412s16.638-3.603 22.29-9.405l0.007-0.007c5.724-5.944 9.25-14.039 9.25-22.957s-3.526-17.014-9.26-22.968l0.010 0.010-68.377-70.194h112.97c17.383-0.23 31.386-14.375 31.386-31.791 0-0.204-0.002-0.408-0.006-0.611v0.030c0.001-0.089 0.001-0.195 0.001-0.301 0-4.481-0.911-8.749-2.559-12.629l0.080 0.212c1.007-3.070 1.588-6.603 1.588-10.272 0-9.084-3.562-17.336-9.364-23.435l0.013 0.014-123.21-126.844c-5.861-6.040-14.054-9.788-23.123-9.788s-17.262 3.748-23.115 9.78l-0.008 0.008c-5.975 6.137-9.661 14.53-9.661 23.783s3.685 17.646 9.668 23.791l-0.007-0.008 90.674 93.316h-110.163c-16.148 4.242-29.404 8.646-42.303 13.755l2.499-0.873c-5.673 5.936-9.164 13.997-9.164 22.875s3.491 16.939 9.176 22.887l-0.012-0.013zM514.973 775.019v152.609c0 17.331 14.050 31.381 31.381 31.381s31.381-14.050 31.381-31.381v0-152.609c-10.57 0.826-20.975 1.652-31.711 1.652s-20.81-0.826-31.050-1.652zM262.606 645.037l-101.905 104.877c-5.674 5.905-9.168 13.94-9.168 22.792s3.494 16.887 9.178 22.803l-0.010-0.011c5.593 5.88 13.477 9.538 22.214 9.538s16.621-3.658 22.202-9.525l0.012-0.013 102.73-105.538c-16.469-13.909-31.269-28.604-44.818-44.403l-0.436-0.521zM168.795 391.35v-24.279h-136.423c-17.437 0.575-31.354 14.848-31.354 32.372s13.917 31.797 31.301 32.37l0.053 0.001h138.405c-1.321-13.378-1.982-26.756-1.982-40.465z" />
<glyph unicode="&#xe94a;" glyph-name="businessMark" d="M272.473 842.863c0.98-7.657 1.47-15.582 1.202-23.463l-1.246-41.36 32.367-25.734 279.641-221.718 42.073 13.712c30.723 10.356 66.105 16.332 102.882 16.332 38.797 0 76.041-6.65 110.654-18.873l-2.325 0.716c20.48-7.079 40.114-16.206 58.769-27.070l-450.783-452.739c-19.068 31.606-33.336 68.477-40.645 107.794l-0.315 2.041c-3.271 17.517-5.142 37.672-5.142 58.263 0 36.835 5.987 72.271 17.042 105.388l-0.679-2.348 13.757 42.028-247.453 312.052-45.635-1.38c-6.5 0-13 0.445-19.411 1.336l155.203 155.069zM289.080 960c-0.014 0-0.030 0-0.046 0-10.558 0-20.115-4.289-27.023-11.219l-0.001-0.001-250.746-250.211c-6.948-6.912-11.247-16.48-11.247-27.052 0-13.278 6.783-24.972 17.073-31.807l0.141-0.088c33.654-22.134 74.914-35.306 119.251-35.306 0.055 0 0.11 0 0.165 0h-0.009c2.315 0 4.586 0 6.857 0.133l194.336-245.048c-12.977-38.31-20.467-82.434-20.467-128.307 0-98.833 34.766-189.546 92.736-260.577l-0.589 0.744c7.281-8.835 18.224-14.424 30.473-14.424 10.831 0 20.641 4.37 27.763 11.442l-0.002-0.002 235.476 236.366 255.11-255.11c6.813-7.292 16.486-11.836 27.221-11.836 20.556 0 37.22 16.664 37.22 37.22 0 10.769-4.573 20.469-11.883 27.265l-0.023 0.021-255.199 255.11 235.431 236.41c7.024 7.105 11.363 16.878 11.363 27.665 0 12.308-5.65 23.296-14.497 30.513l-0.071 0.056c-69.895 56.736-159.955 91.092-258.040 91.092-0.128 0-0.256 0-0.384 0h0.020c-43.409 0-86.729-6.857-128.446-20.48l-245.046 194.382c0.072 2.091 0.113 4.548 0.113 7.015 0 44.147-13.097 85.235-35.618 119.59l0.511-0.831c-6.868 10.462-18.545 17.274-31.814 17.274-0.023 0-0.045 0-0.068 0h0.003z" />
</font>
</defs>
</svg>
